SplineFontDB: 3.2
FontName: Estedad-Thin
FullName: Estedad Thin
FamilyName: Estedad Thin
Weight: Thin
Copyright: Copyright (c) 2017-2019 by Amin Abedi (@aminabedi68)-www.opentypeshop.com and Copyright (c) 2019 by Amin Abedi (@aminabedi68)-www.fontamin.com,\nwith Reserved Font Name Estedad.\n\nThis Font Software is licensed under the SIL Open Font License, Version 1.1.
Version: 3.0
ItalicAngle: 0
UnderlinePosition: -650
UnderlineWidth: 100
Ascent: 1638
Descent: 410
InvalidEm: 0
sfntRevision: 0x00030000
UFOAscent: 1638
UFODescent: -410
LayerCount: 2
Layer: 0 0 "Back" 1
Layer: 1 0 "public.default" 0
StyleMap: 0x0000
FSType: 0
OS2Version: 0
OS2_WeightWidthSlopeOnly: 0
OS2_UseTypoMetrics: 0
CreationTime: 1571651352
ModificationTime: 1571651819
PfmFamily: 16
TTFWeight: 100
TTFWidth: 5
LineGap: 0
VLineGap: 0
OS2TypoAscent: 2200
OS2TypoAOffset: 0
OS2TypoDescent: -1200
OS2TypoDOffset: 0
OS2TypoLinegap: 0
OS2WinAscent: 2200
OS2WinAOffset: 0
OS2WinDescent: 1200
OS2WinDOffset: 0
HheadAscent: 2200
HheadAOffset: 0
HheadDescent: -1200
HheadDOffset: 0
OS2CapHeight: 1400
OS2XHeight: 1012
OS2Vendor: 'AA68'
Lookup: 1 1 0 "finaTerminalFormsinArabiclookup2" { "finaTerminalFormsinArabiclookup2 subtable"  } ['fina' ('arab' <'dflt' 'FAR ' 'KUR ' > ) ]
Lookup: 1 1 0 "mediMedialFormsinArabiclookup3" { "mediMedialFormsinArabiclookup3 subtable"  } ['medi' ('arab' <'dflt' 'FAR ' 'KUR ' > ) ]
Lookup: 1 1 0 "initInitialFormsinArabiclookup4" { "initInitialFormsinArabiclookup4 subtable"  } ['init' ('arab' <'dflt' 'FAR ' 'KUR ' > ) ]
Lookup: 4 1 1 "rligRequiredLigaturesinArabiclookup5" { "rligRequiredLigaturesinArabiclookup5 subtable"  } ['rlig' ('arab' <'dflt' 'FAR ' 'KUR ' > ) ]
Lookup: 4 0 1 "ccmpGlyphCompositionDecompositionlookup6" { "ccmpGlyphCompositionDecompositionlookup6 subtable"  } ['rlig' ('arab' <'dflt' 'FAR ' 'KUR ' > ) ]
Lookup: 2 0 0 "Multiplesubstitution0" { "Multiplesubstitution0 subtable"  } []
Lookup: 2 0 0 "Multiplesubstitution1" { "Multiplesubstitution1 subtable"  } []

StartChar: A
Encoding: 65 65 0
Width: 1267
VWidth: 0
GlyphClass: 2
Flags: HW
LayerCount: 2
Fore
SplineSet
330 499 m 257
 938 499 l 257
 634 1274 l 257
 330 499 l 257
134 0 m 257
 30 0 l 257
 574 1389 l 257
 694 1389 l 257
 1237 0 l 257
 1133 0 l 257
 971 413 l 257
 297 413 l 257
 134 0 l 257
EndSplineSet
EndChar

StartChar: AE
Encoding: 198 198 1
Width: 1788
VWidth: 0
GlyphClass: 2
Flags: HW
LayerCount: 2
Fore
SplineSet
844 1305 m 257
 783 1305 l 257
 374 440 l 257
 844 440 l 257
 844 1305 l 257
717 1389 m 257
 1728 1389 l 257
 1728 1305 l 257
 944 1305 l 257
 944 714 l 257
 1728 714 l 257
 1728 628 l 257
 944 628 l 257
 944 86 l 257
 1728 86 l 257
 1728 0 l 257
 844 0 l 257
 844 356 l 257
 332 356 l 257
 148 0 l 257
 40 0 l 257
 717 1389 l 257
EndSplineSet
EndChar

StartChar: B
Encoding: 66 66 8
Width: 1266
VWidth: 0
GlyphClass: 2
Flags: HW
LayerCount: 2
Fore
SplineSet
190 1389 m 257
 705 1389 l 258
 922 1389 1093 1208 1093 1002 c 256
 1093 871 1024 762 919 699 c 257
 1060 644 1156 514 1156 359 c 256
 1156 153 984 0 768 0 c 258
 190 0 l 257
 190 1389 l 257
290 642 m 257
 290 86 l 257
 768 86 l 258
 924 86 1056 193 1056 359 c 256
 1056 526 922 642 768 642 c 258
 290 642 l 257
705 726 m 258
 861 726 993 836 993 1002 c 256
 993 1168 860 1305 705 1305 c 258
 290 1305 l 257
 290 726 l 257
 705 726 l 258
EndSplineSet
EndChar

StartChar: C
Encoding: 67 67 9
Width: 1289
VWidth: 0
GlyphClass: 2
Flags: HW
LayerCount: 2
Fore
SplineSet
1097 187 m 257
 1169 129 l 257
 1067 37 930 -20 761 -20 c 256
 331 -20 130 332 130 704 c 256
 130 1076 332 1409 761 1409 c 256
 929 1409 1067 1354 1169 1262 c 257
 1097 1204 l 257
 1013 1280 903 1325 761 1325 c 256
 408 1325 230 1056 230 704 c 256
 230 352 409 66 761 66 c 256
 902 66 1013 111 1097 187 c 257
EndSplineSet
EndChar

StartChar: D
Encoding: 68 68 11
Width: 1342
VWidth: 0
GlyphClass: 2
Flags: HW
LayerCount: 2
Fore
SplineSet
580 1389 m 258
 1015 1389 1212 1059 1212 681 c 256
 1212 303 1015 0 580 0 c 258
 190 0 l 257
 190 1389 l 257
 580 1389 l 258
580 1305 m 258
 290 1305 l 257
 290 86 l 257
 580 86 l 258
 939 86 1112 323 1112 681 c 256
 1112 1039 939 1305 580 1305 c 258
EndSplineSet
EndChar

StartChar: E
Encoding: 69 69 12
Width: 1091
VWidth: 0
GlyphClass: 2
Flags: HW
LayerCount: 2
Fore
SplineSet
1021 86 m 257
 1021 0 l 257
 190 0 l 257
 190 1389 l 257
 1021 1389 l 257
 1021 1305 l 257
 290 1305 l 257
 290 723 l 257
 1021 723 l 257
 1021 639 l 257
 290 639 l 257
 290 86 l 257
 1021 86 l 257
EndSplineSet
EndChar

StartChar: F
Encoding: 70 70 18
Width: 1081
VWidth: 0
GlyphClass: 2
Flags: HW
LayerCount: 2
Fore
SplineSet
290 0 m 257
 190 0 l 257
 190 1389 l 257
 1021 1389 l 257
 1021 1305 l 257
 290 1305 l 257
 290 723 l 257
 905 723 l 257
 905 639 l 257
 290 639 l 257
 290 0 l 257
EndSplineSet
EndChar

StartChar: G
Encoding: 71 71 19
Width: 1460
VWidth: 0
GlyphClass: 2
Flags: HW
LayerCount: 2
Fore
SplineSet
762 622 m 257
 762 706 l 257
 1290 709 l 257
 1290 418 l 258
 1290 183 1177 -20 791 -20 c 256
 361 -20 160 332 160 704 c 256
 160 1076 362 1409 791 1409 c 256
 958 1409 1122 1356 1226 1262 c 257
 1154 1204 l 257
 1072 1278 934 1325 791 1325 c 256
 438 1325 260 1056 260 704 c 256
 260 352 439 66 791 66 c 256
 1115 66 1190 209 1190 418 c 258
 1190 623 l 257
 762 622 l 257
EndSplineSet
EndChar

StartChar: GAFbar
Encoding: 1114112 -1 20
Width: 999
VWidth: 0
GlyphClass: 2
Flags: HW
LayerCount: 2
Fore
SplineSet
821 1860 m 257
 837 1786 l 257
 579 1733 316 1629 95 1488 c 257
 55 1552 l 257
 284 1699 555 1805 821 1860 c 257
EndSplineSet
EndChar

StartChar: H
Encoding: 72 72 21
Width: 1349
VWidth: 0
GlyphClass: 2
Flags: HW
LayerCount: 2
Fore
SplineSet
1059 1389 m 257
 1159 1389 l 257
 1159 0 l 257
 1059 0 l 257
 1059 661 l 257
 290 661 l 257
 290 0 l 257
 190 0 l 257
 190 1389 l 257
 290 1389 l 257
 290 745 l 257
 1059 745 l 257
 1059 1389 l 257
EndSplineSet
EndChar

StartChar: I
Encoding: 73 73 24
Width: 560
VWidth: 0
GlyphClass: 2
Flags: HW
LayerCount: 2
Fore
SplineSet
330 0 m 257
 230 0 l 257
 230 1389 l 257
 330 1389 l 257
 330 0 l 257
EndSplineSet
EndChar

StartChar: J
Encoding: 74 74 29
Width: 866
VWidth: 0
GlyphClass: 2
Flags: HW
LayerCount: 2
Fore
SplineSet
80 28 m 257
 132 100 l 257
 175 77 230 66 292 66 c 256
 452 66 576 131 576 358 c 258
 576 1389 l 257
 676 1389 l 257
 676 358 l 258
 676 93 502 -20 292 -20 c 256
 216 -20 143 -5 80 28 c 257
EndSplineSet
EndChar

StartChar: K
Encoding: 75 75 30
Width: 1210
VWidth: 0
GlyphClass: 2
Flags: HW
LayerCount: 2
Fore
SplineSet
1032 1389 m 257
 1160 1389 l 257
 524 710 l 257
 1160 0 l 257
 1036 0 l 257
 460 642 l 257
 290 461 l 257
 290 0 l 257
 190 0 l 257
 190 1389 l 257
 290 1389 l 257
 290 597 l 257
 1032 1389 l 257
EndSplineSet
EndChar

StartChar: L
Encoding: 76 76 31
Width: 1071
VWidth: 0
GlyphClass: 2
Flags: HW
LayerCount: 2
Fore
SplineSet
1021 86 m 257
 1021 0 l 257
 190 0 l 257
 190 1389 l 257
 290 1389 l 257
 290 86 l 257
 1021 86 l 257
EndSplineSet
EndChar

StartChar: M
Encoding: 77 77 32
Width: 1795
VWidth: 0
GlyphClass: 2
Flags: HW
LayerCount: 2
Fore
SplineSet
290 0 m 257
 190 0 l 257
 190 1389 l 257
 313 1389 l 257
 872 129 l 257
 1484 1389 l 257
 1605 1389 l 257
 1605 0 l 257
 1505 0 l 257
 1505 1207 l 257
 920 0 l 257
 822 0 l 257
 290 1197 l 257
 290 0 l 257
EndSplineSet
EndChar

StartChar: N
Encoding: 78 78 33
Width: 1396
VWidth: 0
GlyphClass: 2
Flags: HW
LayerCount: 2
Fore
SplineSet
1106 1389 m 257
 1206 1389 l 257
 1206 0 l 257
 1092 0 l 257
 290 1232 l 257
 290 0 l 257
 190 0 l 257
 190 1389 l 257
 303 1389 l 257
 1106 157 l 257
 1106 1389 l 257
EndSplineSet
EndChar

StartChar: O
Encoding: 79 79 35
Width: 1512
VWidth: 0
GlyphClass: 2
Flags: HW
LayerCount: 2
Fore
SplineSet
756 1409 m 256
 1185 1409 1387 1053 1387 681 c 256
 1387 309 1186 -20 756 -20 c 256
 326 -20 125 309 125 681 c 256
 125 1053 327 1409 756 1409 c 256
756 1325 m 256
 403 1325 225 1033 225 681 c 256
 225 329 404 66 756 66 c 256
 1108 66 1287 329 1287 681 c 256
 1287 1033 1109 1325 756 1325 c 256
EndSplineSet
EndChar

StartChar: OE
Encoding: 338 338 36
Width: 1685
VWidth: 0
GlyphClass: 2
Flags: HW
LayerCount: 2
Fore
SplineSet
704 86 m 257
 704 1304 l 257
 369 1292 200 1024 200 681 c 256
 200 338 369 98 704 86 c 257
1535 1389 m 257
 1535 1305 l 257
 804 1305 l 257
 804 723 l 257
 1535 723 l 257
 1535 639 l 257
 804 639 l 257
 804 86 l 257
 1535 86 l 257
 1535 0 l 257
 731 0 l 258
 301 0 100 309 100 681 c 256
 100 1053 302 1389 731 1389 c 258
 1535 1389 l 257
EndSplineSet
EndChar

StartChar: P
Encoding: 80 80 43
Width: 1193
VWidth: 0
GlyphClass: 2
Flags: HW
LayerCount: 2
Fore
SplineSet
290 0 m 257
 190 0 l 257
 190 1389 l 257
 705 1389 l 258
 922 1389 1093 1231 1093 1025 c 256
 1093 819 921 665 705 665 c 258
 290 665 l 257
 290 0 l 257
290 1305 m 257
 290 749 l 257
 705 749 l 258
 861 749 993 859 993 1025 c 256
 993 1191 860 1305 705 1305 c 258
 290 1305 l 257
EndSplineSet
EndChar

StartChar: R
Encoding: 82 82 45
Width: 1283
VWidth: 0
GlyphClass: 2
Flags: HW
LayerCount: 2
Fore
SplineSet
190 1389 m 257
 705 1389 l 258
 922 1389 1093 1230 1093 1024 c 256
 1093 882 1011 764 890 705 c 257
 1012 643 1093 523 1093 381 c 258
 1093 0 l 257
 993 0 l 257
 993 381 l 258
 993 548 859 664 705 664 c 258
 290 664 l 257
 290 0 l 257
 190 0 l 257
 190 1389 l 257
290 748 m 257
 705 748 l 258
 861 748 993 858 993 1024 c 256
 993 1190 860 1305 705 1305 c 258
 290 1305 l 257
 290 748 l 257
EndSplineSet
EndChar

StartChar: S
Encoding: 83 83 46
Width: 1126
VWidth: 0
GlyphClass: 2
Flags: HW
LayerCount: 2
Fore
SplineSet
90 374 m 257
 190 374 l 257
 190 169 381 66 577 66 c 256
 766 66 936 152 936 347 c 256
 936 517 770 588 557 647 c 256
 361 701 120 816 120 1044 c 256
 120 1283 321 1409 550 1409 c 256
 789 1409 1006 1263 1006 1016 c 257
 906 1016 l 257
 906 1215 741 1325 550 1325 c 256
 365 1325 220 1233 220 1044 c 256
 220 884 380 785 588 727 c 256
 789 672 1036 585 1036 347 c 256
 1036 94 802 -20 577 -20 c 256
 343 -20 90 113 90 374 c 257
EndSplineSet
EndChar

StartChar: T
Encoding: 84 84 47
Width: 1200
VWidth: 0
GlyphClass: 2
Flags: HW
LayerCount: 2
Fore
SplineSet
650 0 m 257
 550 0 l 257
 550 1305 l 257
 50 1305 l 257
 50 1389 l 257
 1150 1389 l 257
 1150 1305 l 257
 650 1305 l 257
 650 0 l 257
EndSplineSet
EndChar

StartChar: Thorn
Encoding: 222 222 54
Width: 1149
VWidth: 0
GlyphClass: 2
Flags: HW
LayerCount: 2
Fore
SplineSet
290 389 m 257
 577 389 l 258
 766 389 919 479 919 682 c 256
 919 885 766 975 577 975 c 258
 290 975 l 257
 290 389 l 257
290 0 m 257
 190 0 l 257
 190 1389 l 257
 290 1389 l 257
 290 1061 l 257
 577 1061 l 258
 810 1061 1019 935 1019 682 c 256
 1019 429 810 303 577 303 c 258
 290 303 l 257
 290 0 l 257
EndSplineSet
EndChar

StartChar: U
Encoding: 85 85 55
Width: 1336
VWidth: 0
GlyphClass: 2
Flags: HW
LayerCount: 2
Fore
SplineSet
1056 1389 m 257
 1156 1389 l 257
 1156 436 l 258
 1156 165 937 -20 668 -20 c 256
 399 -20 180 165 180 436 c 258
 180 1389 l 257
 280 1389 l 257
 280 436 l 258
 280 205 457 66 668 66 c 256
 879 66 1056 205 1056 436 c 258
 1056 1389 l 257
EndSplineSet
EndChar

StartChar: V
Encoding: 86 86 60
Width: 1267
VWidth: 0
GlyphClass: 2
Flags: HW
LayerCount: 2
Fore
SplineSet
1133 1389 m 257
 1237 1389 l 257
 684 0 l 257
 582 0 l 257
 30 1389 l 257
 134 1389 l 257
 633 138 l 257
 1133 1389 l 257
EndSplineSet
EndChar

StartChar: W
Encoding: 87 87 61
Width: 1916
VWidth: 0
GlyphClass: 2
Flags: HW
LayerCount: 2
Fore
SplineSet
1752 1389 m 257
 1856 1389 l 257
 1442 0 l 257
 1327 0 l 257
 958 1231 l 257
 588 0 l 257
 473 0 l 257
 60 1389 l 257
 164 1389 l 257
 531 157 l 257
 902 1389 l 257
 1014 1389 l 257
 1384 157 l 257
 1752 1389 l 257
EndSplineSet
EndChar

StartChar: X
Encoding: 88 88 62
Width: 1160
VWidth: 0
GlyphClass: 2
Flags: HW
LayerCount: 2
Fore
SplineSet
1110 0 m 257
 996 0 l 257
 580 595 l 257
 164 0 l 257
 50 0 l 257
 522 681 l 257
 50 1389 l 257
 164 1389 l 257
 580 766 l 257
 996 1389 l 257
 1110 1389 l 257
 638 681 l 257
 1110 0 l 257
EndSplineSet
EndChar

StartChar: Y
Encoding: 89 89 63
Width: 1120
VWidth: 0
GlyphClass: 2
Flags: HW
LayerCount: 2
Fore
SplineSet
976 1389 m 257
 1090 1389 l 257
 610 635 l 257
 610 0 l 257
 510 0 l 257
 510 635 l 257
 30 1389 l 257
 144 1389 l 257
 560 735 l 257
 976 1389 l 257
EndSplineSet
EndChar

StartChar: Z
Encoding: 90 90 65
Width: 1280
VWidth: 0
GlyphClass: 2
Flags: HW
LayerCount: 2
Fore
SplineSet
90 1305 m 257
 90 1389 l 257
 1190 1389 l 257
 1190 1285 l 257
 195 86 l 257
 1190 86 l 257
 1190 0 l 257
 90 0 l 257
 90 105 l 257
 1085 1305 l 257
 90 1305 l 257
EndSplineSet
EndChar

StartChar: a
Encoding: 97 97 66
Width: 993
VWidth: 0
GlyphClass: 2
Flags: HW
LayerCount: 2
Fore
SplineSet
863 0 m 257
 765 0 l 257
 742 80 726 182 726 322 c 258
 726 724 l 258
 726 861 603 929 467 929 c 256
 332 929 210 861 210 724 c 257
 110 724 l 257
 110 917 294 1013 467 1013 c 256
 641 1013 826 917 826 724 c 258
 826 322 l 258
 826 188 842 70 863 0 c 257
EndSplineSet
Refer: 317 57355 N 1 0 0 1 -60 0 2
EndChar

StartChar: acute
Encoding: 180 180 69
Width: 517
VWidth: 0
GlyphClass: 2
Flags: HW
LayerCount: 2
Fore
SplineSet
332 1474 m 257
 382 1442 l 257
 185 1126 l 257
 135 1158 l 257
 332 1474 l 257
EndSplineSet
EndChar

StartChar: ae
Encoding: 230 230 71
Width: 1690
VWidth: 0
GlyphClass: 2
Flags: HW
LayerCount: 2
Fore
SplineSet
816 476 m 257
 832 234 965 66 1203 66 c 256
 1281 66 1396 82 1521 148 c 257
 1569 74 l 257
 1434 4 1301 -20 1197 -20 c 256
 976 -20 850 86 784 236 c 257
 728 94 599 -20 393 -20 c 256
 217 -20 80 86 80 255 c 256
 80 484 291 583 549 583 c 256
 603 583 659 579 716 572 c 257
 716 684 l 258
 716 821 620 929 457 929 c 256
 312 929 200 861 200 724 c 257
 100 724 l 257
 100 917 274 1013 457 1013 c 256
 624 1013 745 911 797 785 c 257
 868 897 986 1013 1159 1013 c 256
 1468 1013 1610 776 1610 519 c 258
 1610 476 l 257
 816 476 l 257
816 562 m 257
 1509 562 l 257
 1494 781 1373 929 1159 929 c 256
 946 929 830 781 816 562 c 257
716 485 m 257
 656 494 598 498 544 498 c 256
 331 498 180 426 180 258 c 256
 180 132 259 66 393 66 c 256
 599 66 716 202 716 374 c 258
 716 485 l 257
EndSplineSet
EndChar

StartChar: ampersand
Encoding: 38 38 73
Width: 1138
VWidth: 0
GlyphClass: 2
Flags: HW
LayerCount: 2
Fore
SplineSet
443 773 m 257
 603 857 739 930 739 1088 c 256
 739 1189 659 1279 519 1279 c 256
 372 1279 290 1181 290 1058 c 256
 290 997 309 952 349 899 c 258
 443 773 l 257
786 157 m 257
 413 655 l 257
 291 583 200 502 200 351 c 256
 200 181 322 83 520 83 c 256
 631 83 719 110 786 157 c 257
912 146 m 257
 1023 -2 l 257
 939 -48 l 257
 840 85 l 257
 755 28 645 -3 520 -3 c 256
 272 -3 100 137 100 351 c 256
 100 541 225 648 359 727 c 257
 266 852 l 257
 213 916 190 986 190 1058 c 256
 190 1213 304 1363 519 1363 c 256
 719 1363 839 1229 839 1088 c 256
 839 879 653 782 497 702 c 257
 855 223 l 257
 908 290 938 380 938 491 c 257
 1038 491 l 257
 1038 353 995 233 912 146 c 257
EndSplineSet
EndChar

StartChar: asciicircum
Encoding: 94 94 75
Width: 704
VWidth: 0
GlyphClass: 2
Flags: HW
LayerCount: 2
Fore
SplineSet
608 1137 m 257
 560 1099 l 257
 352 1362 l 257
 144 1099 l 257
 96 1137 l 257
 317 1416 l 257
 387 1416 l 257
 608 1137 l 257
EndSplineSet
EndChar

StartChar: asciitilde
Encoding: 126 126 76
Width: 868
VWidth: 0
GlyphClass: 2
Flags: HW
LayerCount: 2
Fore
SplineSet
86 1134 m 257
 138 1256 219 1304 288 1304 c 256
 349 1304 394 1285 452 1241 c 256
 504 1202 534 1189 581 1189 c 256
 618 1189 681 1221 727 1329 c 257
 783 1305 l 257
 731 1185 652 1129 581 1129 c 256
 520 1129 472 1150 416 1193 c 256
 362 1233 335 1244 288 1244 c 256
 249 1244 188 1218 142 1110 c 257
 86 1134 l 257
EndSplineSet
EndChar

StartChar: asterisk
Encoding: 42 42 77
Width: 1133
VWidth: 0
GlyphClass: 2
Flags: HW
LayerCount: 2
Fore
SplineSet
188 1084 m 257
 212 1156 l 257
 528 1052 l 257
 528 1386 l 257
 604 1386 l 257
 604 1052 l 257
 921 1156 l 257
 945 1084 l 257
 627 980 l 257
 824 710 l 257
 764 666 l 257
 566 936 l 257
 369 666 l 257
 309 710 l 257
 505 980 l 257
 188 1084 l 257
EndSplineSet
EndChar

StartChar: at
Encoding: 64 64 78
Width: 2161
VWidth: 0
GlyphClass: 2
Flags: HW
LayerCount: 2
Fore
SplineSet
1096 1013 m 256
 1292 1013 1387 949 1479 877 c 257
 1426 286 l 258
 1425 276 1425 268 1425 257 c 256
 1425 133 1490 64 1604 64 c 256
 1785 64 1911 262 1911 508 c 256
 1911 976 1532 1346 1081 1346 c 256
 630 1346 250 976 250 508 c 256
 250 40 629 -330 1081 -330 c 256
 1159 -330 1235 -319 1307 -298 c 257
 1339 -378 l 257
 1257 -401 1171 -414 1081 -414 c 256
 561 -414 150 4 150 508 c 256
 150 1012 560 1432 1081 1432 c 256
 1602 1432 2011 1012 2011 508 c 256
 2011 256 1883 -20 1604 -20 c 256
 1465 -20 1376 53 1341 154 c 257
 1259 37 1139 -20 1013 -20 c 256
 806 -20 602 111 602 430 c 256
 602 807 827 1013 1096 1013 c 256
1096 929 m 256
 901 929 702 783 702 430 c 256
 702 145 864 64 1013 64 c 256
 1151 64 1315 166 1341 457 c 258
 1375 843 l 257
 1308 893 1239 929 1096 929 c 256
EndSplineSet
EndChar

StartChar: b
Encoding: 98 98 80
Width: 1168
VWidth: 0
GlyphClass: 2
Flags: HW
LayerCount: 2
Fore
SplineSet
270 0 m 257
 170 0 l 257
 170 1389 l 257
 270 1389 l 257
 270 0 l 257
EndSplineSet
Refer: 321 57359 N 1 0 0 1 0 0 2
EndChar

StartChar: backslash
Encoding: 92 92 81
Width: 1019
VWidth: 0
GlyphClass: 2
Flags: HW
LayerCount: 2
Fore
SplineSet
914 -2 m 257
 824 -48 l 257
 105 1363 l 257
 195 1409 l 257
 914 -2 l 257
EndSplineSet
EndChar

StartChar: bar
Encoding: 124 124 82
Width: 440
VWidth: 0
GlyphClass: 2
Flags: HW
LayerCount: 2
Fore
SplineSet
170 1389 m 257
 270 1389 l 257
 270 -410 l 257
 170 -410 l 257
 170 1389 l 257
EndSplineSet
EndChar

StartChar: braceleft
Encoding: 123 123 83
Width: 656
VWidth: 0
GlyphClass: 2
Flags: HW
LayerCount: 2
Fore
SplineSet
247 696 m 257
 330 645 385 560 385 456 c 258
 385 168 l 258
 385 112 419 86 472 86 c 258
 606 86 l 257
 606 0 l 257
 472 0 l 258
 363 0 285 72 285 168 c 258
 285 456 l 258
 285 558 217 627 134 651 c 258
 100 661 l 257
 100 731 l 257
 134 741 l 258
 217 765 285 834 285 936 c 258
 285 1223 l 258
 285 1319 363 1389 472 1389 c 258
 606 1389 l 257
 606 1305 l 257
 472 1305 l 258
 419 1305 385 1279 385 1223 c 258
 385 936 l 258
 385 831 329 746 247 696 c 257
EndSplineSet
EndChar

StartChar: braceright
Encoding: 125 125 84
Width: 656
VWidth: 0
GlyphClass: 2
Flags: HW
LayerCount: 2
Fore
SplineSet
459 696 m 257
 377 746 321 831 321 936 c 258
 321 1223 l 258
 321 1279 287 1305 234 1305 c 258
 100 1305 l 257
 100 1389 l 257
 234 1389 l 258
 343 1389 421 1319 421 1223 c 258
 421 936 l 258
 421 834 489 765 572 741 c 258
 606 731 l 257
 606 661 l 257
 572 651 l 258
 489 627 421 558 421 456 c 258
 421 168 l 258
 421 72 343 0 234 0 c 258
 100 0 l 257
 100 86 l 257
 234 86 l 258
 287 86 321 112 321 168 c 258
 321 456 l 258
 321 560 376 645 459 696 c 257
EndSplineSet
EndChar

StartChar: bracketleft
Encoding: 91 91 85
Width: 642
VWidth: 0
GlyphClass: 2
Flags: HW
LayerCount: 2
Fore
SplineSet
542 86 m 257
 542 0 l 257
 170 0 l 257
 170 1389 l 257
 542 1389 l 257
 542 1305 l 257
 270 1305 l 257
 270 86 l 257
 542 86 l 257
EndSplineSet
EndChar

StartChar: bracketright
Encoding: 93 93 86
Width: 642
VWidth: 0
GlyphClass: 2
Flags: HW
LayerCount: 2
Fore
SplineSet
100 1305 m 257
 100 1389 l 257
 472 1389 l 257
 472 0 l 257
 100 0 l 257
 100 86 l 257
 372 86 l 257
 372 1305 l 257
 100 1305 l 257
EndSplineSet
EndChar

StartChar: brokenbar
Encoding: 166 166 87
Width: 440
VWidth: 0
GlyphClass: 2
Flags: HW
LayerCount: 2
Fore
SplineSet
270 850 m 257
 170 850 l 257
 170 1389 l 257
 270 1389 l 257
 270 850 l 257
270 0 m 257
 170 0 l 257
 170 494 l 257
 270 494 l 257
 270 0 l 257
EndSplineSet
EndChar

StartChar: c
Encoding: 99 99 88
Width: 999
VWidth: 0
GlyphClass: 2
Flags: HW
LayerCount: 2
Fore
SplineSet
819 229 m 257
 909 193 l 257
 841 69 714 -20 534 -20 c 256
 225 -20 90 240 90 496 c 256
 90 752 225 1013 534 1013 c 256
 713 1013 841 926 909 803 c 257
 819 767 l 257
 763 868 671 929 534 929 c 256
 307 929 190 736 190 496 c 256
 190 256 307 66 534 66 c 256
 672 66 763 127 819 229 c 257
EndSplineSet
EndChar

StartChar: cedilla
Encoding: 184 184 90
Width: 723
VWidth: 0
GlyphClass: 2
Flags: HW
LayerCount: 2
Fore
SplineSet
160 -377 m 257
 210 -419 268 -439 352 -439 c 256
 436 -439 515 -394 515 -343 c 256
 515 -253 420 -131 324 -58 c 257
 374 18 l 257
 500 -73 595 -203 595 -343 c 256
 595 -482 454 -529 351 -529 c 256
 248 -529 178 -501 111 -437 c 257
 160 -377 l 257
EndSplineSet
EndChar

StartChar: cent
Encoding: 162 162 91
Width: 999
VWidth: 0
GlyphClass: 2
Flags: HW
LayerCount: 2
Fore
SplineSet
584 978 m 257
 484 978 l 257
 484 1389 l 257
 584 1389 l 257
 584 978 l 257
584 -342 m 257
 484 -342 l 257
 484 65 l 257
 584 65 l 257
 584 -342 l 257
EndSplineSet
Refer: 88 99 N 1 0 0 1 0 0 2
EndChar

StartChar: comma
Encoding: 44 44 93
Width: 453
VWidth: 0
GlyphClass: 2
Flags: HW
LayerCount: 2
Fore
SplineSet
223 -223 m 257
 174 -185 l 257
 197 -159 265 -61 265 27 c 257
 194 27 155 59 155 125 c 256
 155 180 196 217 245 217 c 256
 307 217 347 175 347 92 c 256
 347 -47 276 -158 223 -223 c 257
EndSplineSet
EndChar

StartChar: copyright
Encoding: 169 169 94
Width: 1710
VWidth: 0
GlyphClass: 2
Flags: HW
LayerCount: 2
Fore
SplineSet
220 693 m 256
 220 333 511 51 855 51 c 256
 1199 51 1490 333 1490 693 c 256
 1490 1053 1199 1333 855 1333 c 256
 511 1333 220 1053 220 693 c 256
120 693 m 256
 120 1089 443 1419 855 1419 c 256
 1267 1419 1590 1089 1590 693 c 256
 1590 297 1267 -33 855 -33 c 256
 443 -33 120 297 120 693 c 256
1162 935 m 257
 1080 887 l 257
 1024 956 938 993 855 993 c 256
 694 993 565 861 565 694 c 256
 565 528 694 397 855 397 c 256
 938 397 1024 433 1080 502 c 257
 1162 454 l 257
 1088 365 974 311 855 311 c 256
 624 311 465 494 465 694 c 256
 465 893 624 1077 855 1077 c 256
 974 1077 1088 1024 1162 935 c 257
EndSplineSet
EndChar

StartChar: currency
Encoding: 164 164 95
Width: 1263
VWidth: 0
GlyphClass: 2
Flags: HW
LayerCount: 2
Fore
SplineSet
390 889 m 257
 310 839 l 257
 80 1102 l 257
 160 1152 l 257
 390 889 l 257
310 202 m 257
 390 152 l 257
 160 -111 l 257
 80 -61 l 257
 310 202 l 257
953 839 m 257
 873 889 l 257
 1103 1152 l 257
 1183 1102 l 257
 953 839 l 257
873 152 m 257
 953 202 l 257
 1183 -61 l 257
 1103 -111 l 257
 873 152 l 257
EndSplineSet
Refer: 147 111 N 1 0 0 1 88 0 2
EndChar

StartChar: d
Encoding: 100 100 96
Width: 1168
VWidth: 0
GlyphClass: 2
Flags: HW
LayerCount: 2
Fore
SplineSet
998 0 m 257
 898 0 l 257
 898 1389 l 257
 998 1389 l 257
 998 0 l 257
EndSplineSet
Refer: 321 57359 N -1 0 0 -1 1168 993 2
EndChar

StartChar: degree
Encoding: 176 176 97
Width: 646
VWidth: 0
GlyphClass: 2
Flags: HW
LayerCount: 2
Fore
SplineSet
485 1403 m 256
 485 1494 414 1565 323 1565 c 256
 232 1565 161 1494 161 1403 c 256
 161 1312 232 1241 323 1241 c 256
 414 1241 485 1312 485 1403 c 256
545 1403 m 256
 545 1280 446 1181 323 1181 c 256
 200 1181 101 1280 101 1403 c 256
 101 1526 200 1625 323 1625 c 256
 446 1625 545 1526 545 1403 c 256
EndSplineSet
EndChar

StartChar: dotlessi
Encoding: 305 305 104
Width: 400
VWidth: 0
GlyphClass: 2
Flags: HW
LayerCount: 2
Fore
SplineSet
150 993 m 257
 250 993 l 257
 250 0 l 257
 150 0 l 257
 150 993 l 257
EndSplineSet
EndChar

StartChar: e
Encoding: 101 101 107
Width: 1048
VWidth: 0
GlyphClass: 2
Flags: HW
LayerCount: 2
Fore
SplineSet
181 453 m 257
 200 170 357 66 570 66 c 256
 672 66 790 90 898 147 c 257
 934 74 l 257
 808 5 679 -20 567 -20 c 256
 282 -20 80 153 80 496 c 256
 80 752 215 1013 524 1013 c 257
 833 1013 968 753 968 496 c 257
 967 453 l 257
 181 453 l 257
181 539 m 257
 867 539 l 257
 852 758 738 929 524 929 c 256
 311 929 195 758 181 539 c 257
EndSplineSet
EndChar

StartChar: eight
Encoding: 56 56 112
Width: 1057
VWidth: 0
GlyphClass: 2
Flags: HW
LayerCount: 2
Fore
SplineSet
793 1039 m 256
 793 1159 714 1279 529 1279 c 256
 344 1279 264 1159 264 1039 c 256
 264 869 343 783 528 783 c 256
 712 783 793 868 793 1039 c 256
200 361 m 256
 200 195 321 83 529 83 c 256
 737 83 857 195 857 361 c 256
 857 551 704 697 528 697 c 256
 346 697 200 554 200 361 c 256
723 737 m 257
 865 666 957 520 957 361 c 256
 957 153 791 -3 529 -3 c 256
 267 -3 100 153 100 361 c 256
 100 522 190 668 332 738 c 257
 219 794 164 903 164 1039 c 256
 164 1189 276 1363 529 1363 c 256
 782 1363 893 1189 893 1039 c 256
 893 901 837 792 723 737 c 257
EndSplineSet
EndChar

StartChar: eth
Encoding: 240 240 114
Width: 1088
VWidth: 0
GlyphClass: 2
Flags: HW
LayerCount: 2
Fore
SplineSet
544 929 m 256
 317 929 200 736 200 496 c 256
 200 256 317 66 544 66 c 256
 771 66 888 256 888 496 c 256
 888 736 771 929 544 929 c 256
544 1013 m 256
 622 1013 689 997 745 968 c 257
 690 1050 624 1128 552 1194 c 257
 386 1060 l 257
 324 1138 l 257
 473 1259 l 257
 401 1311 325 1348 248 1362 c 257
 266 1460 l 257
 369 1441 466 1392 554 1324 c 257
 709 1450 l 257
 771 1372 l 257
 630 1258 l 257
 859 1039 988 754 988 496 c 256
 988 240 853 -20 544 -20 c 256
 235 -20 100 240 100 496 c 256
 100 752 235 1013 544 1013 c 256
EndSplineSet
EndChar

StartChar: exclam
Encoding: 33 33 115
Width: 610
VWidth: 0
GlyphClass: 2
Flags: HW
LayerCount: 2
Fore
SplineSet
355 391 m 257
 255 391 l 257
 255 1411 l 257
 355 1411 l 257
 355 391 l 257
EndSplineSet
Refer: 165 46 N 1 0 0 1 30 0 2
EndChar

StartChar: f
Encoding: 102 102 117
Width: 644
VWidth: 0
GlyphClass: 2
Flags: HW
LayerCount: 2
Fore
SplineSet
643 1388 m 257
 643 1304 l 257
 456 1304 l 258
 393 1304 330 1250 330 1171 c 258
 330 0 l 257
 230 0 l 257
 230 1171 l 258
 230 1286 325 1388 456 1388 c 257
 518 1388 581 1388 643 1388 c 257
EndSplineSet
Refer: 316 57354 N 1 0 0 1 -40 462 2
EndChar

StartChar: five
Encoding: 53 53 119
Width: 1162
VWidth: 0
GlyphClass: 2
Flags: HW
LayerCount: 2
Fore
SplineSet
170 376 m 257
 270 376 l 257
 270 195 381 83 568 83 c 256
 809 83 937 199 937 476 c 256
 937 727 806 869 568 869 c 256
 470 869 360 827 262 763 c 257
 188 800 l 257
 242 1363 l 257
 1062 1363 l 257
 1062 1279 l 257
 334 1279 l 257
 296 887 l 257
 388 933 480 955 568 955 c 256
 874 955 1037 753 1037 476 c 256
 1037 171 871 -3 568 -3 c 256
 317 -3 170 163 170 376 c 257
EndSplineSet
EndChar

StartChar: four
Encoding: 52 52 120
Width: 1117
VWidth: 0
GlyphClass: 2
Flags: HW
LayerCount: 2
Fore
SplineSet
764 409 m 257
 764 1235 l 257
 184 409 l 257
 764 409 l 257
1077 409 m 257
 1077 325 l 257
 864 325 l 257
 864 -25 l 257
 764 -25 l 257
 764 325 l 257
 80 325 l 257
 80 427 l 257
 738 1363 l 257
 864 1363 l 257
 864 409 l 257
 1077 409 l 257
EndSplineSet
EndChar

StartChar: g
Encoding: 103 103 121
Width: 1168
VWidth: 0
GlyphClass: 2
Flags: HW
LayerCount: 2
Fore
SplineSet
898 993 m 257
 998 993 l 257
 998 48 l 258
 998 -288 780 -430 527 -430 c 256
 391 -430 248 -389 122 -317 c 257
 160 -242 l 257
 273 -307 408 -348 532 -348 c 256
 730 -348 898 -242 898 48 c 258
 898 993 l 257
EndSplineSet
Refer: 321 57359 N -1 0 0 -1 1168 993 2
EndChar

StartChar: germandbls
Encoding: 223 223 122
Width: 1129
VWidth: 0
GlyphClass: 2
Flags: HW
LayerCount: 2
Fore
SplineSet
537 0 m 257
 537 86 l 257
 834 86 919 106 919 232 c 256
 919 324 860 378 786 430 c 256
 713 482 624 549 624 671 c 256
 624 767 664 817 705 866 c 256
 745 914 785 962 785 1053 c 256
 785 1215 697 1325 527 1325 c 256
 351 1325 270 1216 270 1053 c 258
 270 0 l 257
 170 0 l 257
 170 1053 l 258
 170 1240 279 1409 527 1409 c 256
 769 1409 885 1241 885 1053 c 256
 885 948 842 896 800 846 c 256
 761 800 724 755 724 671 c 256
 724 589 777 548 850 496 c 256
 928 440 1019 362 1019 232 c 256
 1019 24 814 0 537 0 c 257
EndSplineSet
EndChar

StartChar: grave
Encoding: 96 96 123
Width: 524
VWidth: 0
GlyphClass: 2
Flags: HW
LayerCount: 2
Fore
SplineSet
386 1158 m 257
 336 1126 l 257
 138 1442 l 257
 188 1474 l 257
 386 1158 l 257
EndSplineSet
EndChar

StartChar: greater
Encoding: 62 62 124
Width: 775
VWidth: 0
GlyphClass: 2
Flags: HW
LayerCount: 2
Fore
SplineSet
176 158 m 257
 124 212 l 257
 515 582 l 257
 124 953 l 257
 176 1007 l 257
 623 582 l 257
 176 158 l 257
EndSplineSet
EndChar

StartChar: h
Encoding: 104 104 127
Width: 1088
VWidth: 0
GlyphClass: 2
Flags: HW
LayerCount: 2
Fore
SplineSet
260 0 m 257
 160 0 l 257
 160 1389 l 257
 260 1389 l 257
 260 0 l 257
EndSplineSet
Refer: 319 57357 N 1 0 0 1 10 0 2
EndChar

StartChar: hyphen
Encoding: 45 45 128
Width: 993
VWidth: 0
GlyphClass: 2
Flags: HW
LayerCount: 2
Fore
SplineSet
873 527 m 257
 873 443 l 257
 120 443 l 257
 120 527 l 257
 873 527 l 257
EndSplineSet
EndChar

StartChar: k
Encoding: 107 107 135
Width: 931
VWidth: 0
GlyphClass: 2
Flags: HW
LayerCount: 2
Fore
SplineSet
804 993 m 257
 931 993 l 257
 456 497 l 257
 898 0 l 257
 774 0 l 257
 393 426 l 257
 260 280 l 257
 260 0 l 257
 160 0 l 257
 160 1389 l 257
 260 1389 l 257
 260 420 l 257
 804 993 l 257
EndSplineSet
EndChar

StartChar: l
Encoding: 108 108 136
Width: 460
VWidth: 0
GlyphClass: 2
Flags: HW
LayerCount: 2
Fore
SplineSet
280 0 m 257
 180 0 l 257
 180 1389 l 257
 280 1389 l 257
 280 0 l 257
EndSplineSet
EndChar

StartChar: less
Encoding: 60 60 137
Width: 775
VWidth: 0
GlyphClass: 2
Flags: HW
LayerCount: 2
Fore
SplineSet
571 1007 m 257
 623 953 l 257
 232 583 l 257
 623 212 l 257
 571 158 l 257
 124 583 l 257
 571 1007 l 257
EndSplineSet
EndChar

StartChar: logicalnot
Encoding: 172 172 138
Width: 1073
VWidth: 0
GlyphClass: 2
Flags: HW
LayerCount: 2
Fore
SplineSet
100 443 m 257
 100 527 l 257
 903 527 l 257
 903 213 l 257
 803 213 l 257
 803 443 l 257
 100 443 l 257
EndSplineSet
EndChar

StartChar: m
Encoding: 109 109 139
Width: 1536
VWidth: 0
GlyphClass: 2
Flags: HW
LayerCount: 2
Fore
SplineSet
150 993 m 257
 250 993 l 257
 250 0 l 257
 150 0 l 257
 150 993 l 257
EndSplineSet
Refer: 318 57356 N 1 0 0 1 -568 0 2
Refer: 318 57356 N 1 0 0 1 0 0 2
EndChar

StartChar: mu
Encoding: 181 181 141
Width: 1108
VWidth: 0
GlyphClass: 2
Flags: HW
LayerCount: 2
Fore
SplineSet
170 993 m 257
 270 993 l 257
 270 324 l 258
 270 202 319 66 504 66 c 256
 698 66 838 214 838 409 c 258
 838 993 l 257
 938 993 l 257
 938 0 l 257
 838 0 l 257
 838 130 l 257
 762 40 647 -20 504 -20 c 256
 396 -20 321 13 270 62 c 257
 270 -410 l 257
 170 -410 l 257
 170 993 l 257
EndSplineSet
EndChar

StartChar: n
Encoding: 110 110 143
Width: 1088
VWidth: 0
GlyphClass: 2
Flags: HW
LayerCount: 2
Fore
SplineSet
260 0 m 257
 160 0 l 257
 160 993 l 257
 260 993 l 257
 260 0 l 257
EndSplineSet
Refer: 319 57357 N 1 0 0 1 10 0 2
EndChar

StartChar: nine
Encoding: 57 57 144
Width: 1125
VWidth: 0
GlyphClass: 2
Flags: HW
LayerCount: 2
Fore
SplineSet
894 753 m 257
 886 1044 813 1279 532 1279 c 256
 327 1279 200 1117 200 950 c 256
 200 713 354 593 531 593 c 256
 643 593 777 644 894 753 c 257
894 634 m 257
 778 549 650 507 531 507 c 256
 288 507 100 679 100 950 c 256
 100 1147 255 1363 532 1363 c 256
 938 1363 995 995 995 697 c 256
 995 249 808 -3 502 -3 c 256
 349 -3 222 45 115 138 c 257
 187 198 l 257
 278 119 375 83 502 83 c 256
 710 83 877 239 894 634 c 257
EndSplineSet
EndChar

StartChar: numbersign
Encoding: 35 35 146
Width: 1683
VWidth: 0
GlyphClass: 2
Flags: HW
LayerCount: 2
Fore
SplineSet
395 -36 m 257
 299 -14 l 257
 432 423 l 257
 120 423 l 257
 120 509 l 257
 458 509 l 257
 574 889 l 257
 212 889 l 257
 212 973 l 257
 600 973 l 257
 730 1397 l 257
 826 1375 l 257
 704 973 l 257
 1148 973 l 257
 1278 1397 l 257
 1374 1375 l 257
 1252 973 l 257
 1563 973 l 257
 1563 889 l 257
 1226 889 l 257
 1110 509 l 257
 1471 509 l 257
 1471 423 l 257
 1084 423 l 257
 943 -36 l 257
 847 -14 l 257
 980 423 l 257
 536 423 l 257
 395 -36 l 257
1122 889 m 257
 678 889 l 257
 562 509 l 257
 1006 509 l 257
 1122 889 l 257
EndSplineSet
EndChar

StartChar: o
Encoding: 111 111 147
Width: 1068
VWidth: 0
GlyphClass: 2
Flags: HW
LayerCount: 2
Fore
SplineSet
534 929 m 256
 307 929 190 736 190 496 c 256
 190 256 307 66 534 66 c 256
 761 66 878 256 878 496 c 256
 878 736 761 929 534 929 c 256
534 1013 m 256
 843 1013 978 752 978 496 c 256
 978 240 843 -20 534 -20 c 256
 225 -20 90 240 90 496 c 256
 90 752 225 1013 534 1013 c 256
EndSplineSet
EndChar

StartChar: one
Encoding: 49 49 153
Width: 882
VWidth: 0
GlyphClass: 2
Flags: HW
LayerCount: 2
Fore
SplineSet
202 1054 m 257
 200 1138 l 257
 292 1139 l 258
 441 1141 493 1166 532 1224 c 257
 532 1386 l 257
 632 1386 l 257
 632 -25 l 257
 532 -25 l 257
 532 1110 l 257
 473 1068 393 1056 294 1055 c 258
 202 1054 l 257
EndSplineSet
EndChar

StartChar: onehalf
Encoding: 189 189 154
Width: 2096
VWidth: 0
GlyphClass: 2
Flags: HW
LayerCount: 2
Fore
SplineSet
606 -79 m 257
 522 -33 l 257
 1553 1334 l 257
 1637 1288 l 257
 606 -79 l 257
1956 -376 m 257
 1956 -460 l 257
 1269 -460 l 257
 1269 -365 l 257
 1758 97 l 258
 1817 153 1856 204 1856 318 c 256
 1856 492 1732 564 1612 564 c 256
 1493 564 1370 492 1370 318 c 257
 1270 318 l 257
 1270 534 1437 650 1612 650 c 256
 1786 650 1956 534 1956 318 c 256
 1956 184 1901 105 1832 41 c 258
 1392 -376 l 257
 1956 -376 l 257
150 1158 m 257
 150 1244 l 257
 182 1244 l 258
 331 1244 384 1265 421 1320 c 257
 421 1490 l 257
 521 1490 l 257
 521 430 l 257
 421 430 l 257
 421 1213 l 257
 362 1171 281 1158 182 1158 c 258
 150 1158 l 257
EndSplineSet
EndChar

StartChar: onequarter
Encoding: 188 188 155
Width: 1965
VWidth: 0
GlyphClass: 2
Flags: HW
LayerCount: 2
Fore
SplineSet
150 1158 m 257
 150 1244 l 257
 182 1244 l 258
 331 1244 384 1265 421 1320 c 257
 421 1490 l 257
 521 1490 l 257
 521 430 l 257
 421 430 l 257
 421 1213 l 257
 362 1171 281 1158 182 1158 c 258
 150 1158 l 257
1815 -122 m 257
 1815 -206 l 257
 1669 -206 l 257
 1669 -458 l 257
 1569 -458 l 257
 1569 -206 l 257
 1055 -206 l 257
 1055 -117 l 257
 1552 642 l 257
 1669 642 l 257
 1669 -122 l 257
 1815 -122 l 257
1569 -122 m 257
 1569 494 l 257
 1166 -122 l 257
 1569 -122 l 257
609 -79 m 257
 525 -33 l 257
 1555 1334 l 257
 1639 1288 l 257
 609 -79 l 257
EndSplineSet
EndChar

StartChar: ordfeminine
Encoding: 170 170 156
Width: 747
VWidth: 0
GlyphClass: 2
Flags: HW
LayerCount: 2
Fore
SplineSet
510 1201 m 257
 510 1282 l 258
 510 1363 440 1400 350 1400 c 256
 260 1400 193 1364 193 1282 c 257
 133 1282 l 257
 133 1412 248 1460 350 1460 c 256
 452 1460 570 1413 570 1282 c 258
 570 1027 l 258
 570 941 595 908 616 892 c 257
 578 844 l 257
 555 863 534 891 522 934 c 257
 471 871 398 839 310 839 c 256
 197 839 120 909 120 1006 c 256
 120 1154 253 1208 411 1208 c 256
 446 1208 475 1206 510 1201 c 257
510 1140 m 257
 472 1145 446 1148 411 1148 c 256
 259 1148 180 1102 180 1006 c 256
 180 947 223 899 310 899 c 256
 406 899 474 942 510 1032 c 257
 510 1140 l 257
EndSplineSet
EndChar

StartChar: p
Encoding: 112 112 160
Width: 1158
VWidth: 0
GlyphClass: 2
Flags: HW
LayerCount: 2
Fore
SplineSet
160 993 m 257
 260 993 l 257
 260 -410 l 257
 160 -410 l 257
 160 993 l 257
EndSplineSet
Refer: 321 57359 N 1 0 0 1 -10 0 2
EndChar

StartChar: paragraph
Encoding: 182 182 161
Width: 1236
VWidth: 0
GlyphClass: 2
Flags: HW
LayerCount: 2
Fore
SplineSet
708 1305 m 257
 516 1305 l 258
 352 1305 200 1167 200 952 c 256
 200 737 352 601 516 601 c 258
 708 601 l 257
 708 1305 l 257
1066 -410 m 257
 966 -410 l 257
 966 1305 l 257
 808 1305 l 257
 808 -410 l 257
 708 -410 l 257
 708 515 l 257
 516 515 l 258
 280 515 100 707 100 952 c 256
 100 1197 280 1389 516 1389 c 258
 1066 1389 l 257
 1066 -410 l 257
EndSplineSet
EndChar

StartChar: parenleft
Encoding: 40 40 162
Width: 598
VWidth: 0
GlyphClass: 2
Flags: HW
LayerCount: 2
Fore
SplineSet
440 2 m 257
 356 -52 l 257
 222 158 150 394 150 681 c 256
 150 968 222 1203 356 1413 c 257
 440 1359 l 257
 316 1165 250 952 250 681 c 256
 250 410 316 196 440 2 c 257
EndSplineSet
EndChar

StartChar: parenright
Encoding: 41 41 163
Width: 598
VWidth: 0
GlyphClass: 2
Flags: HW
LayerCount: 2
Fore
SplineSet
158 1359 m 257
 242 1413 l 257
 376 1203 448 967 448 680 c 256
 448 393 376 158 242 -52 c 257
 158 2 l 257
 282 196 348 409 348 680 c 256
 348 951 282 1165 158 1359 c 257
EndSplineSet
EndChar

StartChar: period
Encoding: 46 46 165
Width: 550
VWidth: 0
GlyphClass: 2
Flags: HW
LayerCount: 2
Fore
SplineSet
190 85 m 256
 190 132 229 169 276 169 c 256
 323 169 360 132 360 85 c 256
 360 38 323 0 276 0 c 256
 229 0 190 38 190 85 c 256
EndSplineSet
EndChar

StartChar: plus
Encoding: 43 43 167
Width: 993
VWidth: 0
GlyphClass: 2
Flags: HW
LayerCount: 2
Fore
SplineSet
873 527 m 257
 873 443 l 257
 546 443 l 257
 546 109 l 257
 446 109 l 257
 446 443 l 257
 120 443 l 257
 120 527 l 257
 446 527 l 257
 446 861 l 257
 546 861 l 257
 546 527 l 257
 873 527 l 257
EndSplineSet
EndChar

StartChar: q
Encoding: 113 113 169
Width: 1158
VWidth: 0
GlyphClass: 2
Flags: HW
LayerCount: 2
Fore
SplineSet
898 993 m 257
 998 993 l 257
 998 -410 l 257
 898 -410 l 257
 898 993 l 257
EndSplineSet
Refer: 321 57359 N -1 0 0 -1 1168 993 2
EndChar

StartChar: question
Encoding: 63 63 170
Width: 1067
VWidth: 0
GlyphClass: 2
Flags: HW
LayerCount: 2
Fore
SplineSet
255 975 m 257
 155 963 l 257
 151 992 150 1019 150 1045 c 256
 150 1240 274 1409 528 1409 c 256
 776 1409 917 1221 917 1004 c 256
 917 861 829 784 742 727 c 256
 651 667 563 602 563 426 c 257
 463 426 l 257
 463 634 581 729 680 795 c 256
 761 848 817 895 817 1004 c 256
 817 1195 702 1325 528 1325 c 256
 342 1325 250 1212 250 1045 c 256
 250 1021 251 998 255 975 c 257
EndSplineSet
Refer: 165 46 N -1 0 0 1 798 0 2
EndChar

StartChar: quoteleft
Encoding: 8216 8216 175
Width: 598
VWidth: 0
GlyphClass: 2
Flags: HW
LayerCount: 2
Fore
SplineSet
276 721 m 257
 207 848 156 1056 156 1200 c 256
 156 1310 208 1386 306 1386 c 256
 403 1386 442 1321 442 1242 c 256
 442 1093 252 1199 252 1110 c 256
 252 1034 299 858 342 769 c 257
 276 721 l 257
EndSplineSet
EndChar

StartChar: quoteright
Encoding: 8217 8217 176
Width: 598
VWidth: 0
GlyphClass: 2
Flags: HW
LayerCount: 2
Fore
SplineSet
322 721 m 257
 256 769 l 257
 299 858 346 1034 346 1110 c 256
 346 1199 156 1093 156 1242 c 256
 156 1321 195 1386 292 1386 c 256
 390 1386 442 1310 442 1200 c 256
 442 1056 391 848 322 721 c 257
EndSplineSet
EndChar

StartChar: quotesingle
Encoding: 39 39 177
Width: 400
VWidth: 0
GlyphClass: 2
Flags: HW
LayerCount: 2
Fore
SplineSet
160 1386 m 257
 240 1386 l 257
 240 871 l 257
 160 871 l 257
 160 1386 l 257
EndSplineSet
EndChar

StartChar: r
Encoding: 114 114 178
Width: 694
VWidth: 0
GlyphClass: 2
Flags: HW
LayerCount: 2
Fore
SplineSet
160 993 m 257
 260 993 l 257
 260 0 l 257
 160 0 l 257
 160 993 l 257
EndSplineSet
Refer: 320 57358 N 1 0 0 1 10 -2 2
EndChar

StartChar: registered
Encoding: 174 174 179
Width: 1710
VWidth: 0
GlyphClass: 2
Flags: HW
LayerCount: 2
Fore
SplineSet
120 693 m 256
 120 1089 443 1419 855 1419 c 256
 1267 1419 1590 1089 1590 693 c 256
 1590 297 1267 -33 855 -33 c 256
 443 -33 120 297 120 693 c 256
220 693 m 256
 220 333 511 51 855 51 c 256
 1199 51 1490 333 1490 693 c 256
 1490 1053 1199 1333 855 1333 c 256
 511 1333 220 1053 220 693 c 256
690 643 m 257
 886 643 l 258
 997 643 1087 710 1087 819 c 256
 1087 928 998 997 886 997 c 258
 690 997 l 257
 690 643 l 257
1165 334 m 257
 1083 286 l 257
 860 557 l 257
 690 557 l 257
 690 310 l 257
 590 310 l 257
 590 1083 l 257
 886 1083 l 258
 1052 1083 1187 972 1187 819 c 256
 1187 693 1095 598 973 568 c 257
 1165 334 l 257
EndSplineSet
EndChar

StartChar: s
Encoding: 115 115 180
Width: 959
VWidth: 0
GlyphClass: 2
Flags: HW
LayerCount: 2
Fore
SplineSet
100 300 m 257
 200 300 l 257
 200 147 331 86 479 86 c 256
 627 86 759 148 759 300 c 256
 759 434 641 452 470 473 c 256
 320 491 115 517 115 707 c 256
 115 911 306 993 479 993 c 256
 652 993 842 910 842 707 c 257
 742 707 l 257
 742 852 620 909 479 909 c 256
 338 909 215 851 215 707 c 256
 215 595 318 578 484 557 c 256
 641 538 859 508 859 300 c 256
 859 88 659 0 479 0 c 256
 299 0 100 89 100 300 c 257
EndSplineSet
EndChar

StartChar: section
Encoding: 167 167 181
Width: 952
VWidth: 0
GlyphClass: 2
Flags: HW
LayerCount: 2
Fore
SplineSet
102 264 m 257
 202 264 l 257
 202 114 330 52 476 52 c 256
 623 52 752 115 752 264 c 256
 752 361 636 391 468 414 c 256
 307 436 100 473 100 670 c 256
 100 798 174 884 273 930 c 257
 178 962 100 1017 100 1124 c 256
 100 1333 297 1420 476 1420 c 256
 655 1420 851 1332 851 1124 c 257
 751 1124 l 257
 751 1274 623 1334 476 1334 c 256
 329 1334 200 1273 200 1124 c 256
 200 1027 317 998 485 972 c 256
 648 948 852 907 852 706 c 256
 852 580 781 500 685 456 c 257
 777 424 852 369 852 264 c 256
 852 55 655 -32 476 -32 c 256
 296 -32 102 56 102 264 c 257
472 887 m 257
 329 886 200 819 200 670 c 256
 200 548 309 523 480 499 c 257
 626 500 752 558 752 706 c 256
 752 834 642 861 472 887 c 257
EndSplineSet
EndChar

StartChar: seven
Encoding: 55 55 183
Width: 1062
VWidth: 0
GlyphClass: 2
Flags: HW
LayerCount: 2
Fore
SplineSet
80 1279 m 257
 80 1363 l 257
 918 1363 l 257
 952 1271 l 257
 361 -40 l 257
 267 -10 l 257
 849 1279 l 257
 80 1279 l 257
EndSplineSet
EndChar

StartChar: simpledot
Encoding: 1114127 -1 184
Width: 2136
VWidth: 0
GlyphClass: 2
Flags: HW
LayerCount: 2
Fore
SplineSet
1080 107 m 257
 1187 214 l 257
 1294 107 l 257
 1187 0 l 257
 1080 107 l 257
EndSplineSet
EndChar

StartChar: six
Encoding: 54 54 185
Width: 1125
VWidth: 0
GlyphClass: 2
Flags: HW
LayerCount: 2
Fore
SplineSet
594 769 m 256
 482 769 348 717 231 608 c 257
 239 317 312 83 593 83 c 256
 798 83 925 244 925 411 c 256
 925 648 771 769 594 769 c 256
594 853 m 256
 837 853 1025 682 1025 411 c 256
 1025 214 870 -3 593 -3 c 256
 187 -3 130 366 130 664 c 256
 130 1092 315 1363 623 1363 c 256
 776 1363 903 1316 1010 1223 c 257
 938 1163 l 257
 847 1242 750 1279 623 1279 c 256
 417 1279 248 1105 231 727 c 257
 347 812 475 853 594 853 c 256
EndSplineSet
EndChar

StartChar: slash
Encoding: 47 47 186
Width: 1050
VWidth: 0
GlyphClass: 2
Flags: HW
LayerCount: 2
Fore
SplineSet
805 1407 m 257
 895 1365 l 257
 245 -46 l 257
 155 -4 l 257
 805 1407 l 257
EndSplineSet
EndChar

StartChar: sterling
Encoding: 163 163 188
Width: 1254
VWidth: 0
GlyphClass: 2
Flags: HW
LayerCount: 2
Fore
SplineSet
594 1325 m 256
 497 1325 407 1244 407 1129 c 258
 407 260 l 258
 407 194 390 133 348 86 c 257
 1134 86 l 257
 1134 0 l 257
 120 0 l 257
 120 86 l 257
 242 86 307 138 307 260 c 258
 307 1129 l 258
 307 1278 427 1409 594 1409 c 256
 741 1409 854 1306 877 1180 c 257
 779 1168 l 257
 762 1262 681 1325 594 1325 c 256
EndSplineSet
Refer: 316 57354 N 1 0 0 1 20 0 2
EndChar

StartChar: t
Encoding: 116 116 189
Width: 684
VWidth: 0
GlyphClass: 2
Flags: HW
LayerCount: 2
Fore
SplineSet
614 86 m 257
 614 0 l 257
 560 0 505 0 454 0 c 257
 323 0 228 103 228 218 c 258
 228 1279 l 257
 328 1279 l 257
 328 218 l 258
 328 139 391 86 454 86 c 258
 614 86 l 257
EndSplineSet
Refer: 316 57354 N 1 0 0 1 -70 462 2
EndChar

StartChar: three
Encoding: 51 51 191
Width: 1109
VWidth: 0
GlyphClass: 2
Flags: HW
LayerCount: 2
Fore
SplineSet
100 383 m 257
 200 383 l 257
 200 173 372 83 548 83 c 256
 723 83 899 159 899 371 c 256
 899 599 730 683 539 683 c 258
 466 683 l 257
 466 768 l 257
 539 768 l 258
 730 768 860 858 860 1013 c 256
 860 1198 713 1279 561 1279 c 256
 405 1279 259 1205 259 1022 c 257
 159 1022 l 257
 159 1258 366 1364 561 1364 c 256
 758 1364 960 1248 960 1013 c 256
 960 882 884 781 764 727 c 257
 900 671 999 552 999 371 c 256
 999 103 757 -3 548 -3 c 256
 330 -3 100 121 100 383 c 257
EndSplineSet
EndChar

StartChar: threequarters
Encoding: 190 190 192
Width: 2140
VWidth: 0
GlyphClass: 2
Flags: HW
LayerCount: 2
Fore
SplineSet
1990 -122 m 257
 1990 -206 l 257
 1844 -206 l 257
 1844 -458 l 257
 1744 -458 l 257
 1744 -206 l 257
 1230 -206 l 257
 1230 -117 l 257
 1728 642 l 257
 1844 642 l 257
 1844 -122 l 257
 1990 -122 l 257
1744 -122 m 257
 1744 493 l 257
 1341 -122 l 257
 1744 -122 l 257
426 900 m 258
 340 900 l 257
 340 984 l 257
 426 984 l 258
 582 984 685 1039 685 1203 c 256
 685 1319 574 1412 443 1412 c 256
 324 1412 200 1339 200 1165 c 257
 100 1165 l 257
 100 1381 268 1498 443 1498 c 256
 630 1498 785 1365 785 1203 c 256
 785 1079 729 990 634 942 c 257
 728 895 785 807 785 682 c 256
 785 520 630 388 443 388 c 256
 268 388 100 503 100 719 c 257
 200 719 l 257
 200 545 324 472 443 472 c 256
 574 472 685 566 685 682 c 256
 685 845 583 900 426 900 c 258
784 -79 m 257
 700 -33 l 257
 1731 1334 l 257
 1815 1288 l 257
 784 -79 l 257
EndSplineSet
EndChar

StartChar: two
Encoding: 50 50 193
Width: 1126
VWidth: 0
GlyphClass: 2
Flags: HW
LayerCount: 2
Fore
SplineSet
1026 0 m 257
 110 0 l 257
 110 103 l 258
 110 348 381 486 634 578 c 256
 852 657 901 807 901 955 c 256
 901 1175 731 1280 561 1280 c 256
 404 1280 222 1167 222 935 c 257
 122 935 l 257
 122 1211 348 1366 561 1366 c 256
 783 1366 1001 1221 1001 955 c 256
 1001 791 938 595 672 498 c 256
 417 406 210 284 210 103 c 258
 210 86 l 257
 1026 86 l 257
 1026 0 l 257
EndSplineSet
EndChar

StartChar: u
Encoding: 117 117 194
Width: 1088
VWidth: 0
GlyphClass: 2
Flags: HW
LayerCount: 2
Fore
SplineSet
828 993 m 257
 928 993 l 257
 928 0 l 257
 828 0 l 257
 828 993 l 257
EndSplineSet
Refer: 319 57357 N -1 0 0 -1 1078 995 2
EndChar

StartChar: underscore
Encoding: 95 95 199
Width: 666
VWidth: 0
GlyphClass: 2
Flags: HW
LayerCount: 2
Fore
SplineSet
666 100 m 257
 666 0 l 257
 0 0 l 257
 0 100 l 257
 666 100 l 257
EndSplineSet
EndChar

StartChar: uni00B2
Encoding: 178 178 202
Width: 658
VWidth: 0
GlyphClass: 2
Flags: HW
LayerCount: 2
Fore
SplineSet
120 864 m 257
 120 924 l 257
 392 1175 l 258
 421 1204 438 1225 438 1278 c 256
 438 1361 377 1400 309 1400 c 256
 241 1400 180 1361 180 1278 c 257
 120 1278 l 257
 120 1401 217 1460 309 1460 c 256
 401 1460 498 1401 498 1278 c 256
 498 1207 467 1166 434 1133 c 258
 205 924 l 257
 508 924 l 257
 508 864 l 257
 120 864 l 257
EndSplineSet
EndChar

StartChar: uni00B3
Encoding: 179 179 203
Width: 606
VWidth: 0
GlyphClass: 2
Flags: HW
LayerCount: 2
Fore
SplineSet
180 1296 m 257
 120 1296 l 257
 120 1391 206 1460 303 1460 c 256
 400 1460 486 1391 486 1296 c 256
 486 1239 456 1192 409 1162 c 257
 454 1133 486 1085 486 1028 c 256
 486 933 400 864 303 864 c 256
 206 864 120 933 120 1028 c 257
 180 1028 l 257
 180 973 232 924 303 924 c 256
 374 924 426 973 426 1028 c 256
 426 1083 374 1132 303 1132 c 258
 242 1132 l 257
 242 1192 l 257
 303 1192 l 258
 374 1192 426 1241 426 1296 c 256
 426 1351 374 1400 303 1400 c 256
 232 1400 180 1351 180 1296 c 257
EndSplineSet
EndChar

StartChar: uni00B9
Encoding: 185 185 204
Width: 457
VWidth: 0
GlyphClass: 2
Flags: HW
LayerCount: 2
Fore
SplineSet
89 1258 m 257
 89 1318 l 257
 249 1318 l 257
 250 1430 l 257
 310 1430 l 257
 310 804 l 257
 250 804 l 257
 250 1258 l 257
 89 1258 l 257
EndSplineSet
EndChar

StartChar: uni0237
Encoding: 567 567 205
Width: 400
VWidth: 0
GlyphClass: 2
Flags: HW
LayerCount: 2
Fore
SplineSet
150 -192 m 258
 150 993 l 257
 250 993 l 257
 250 -192 l 258
 250 -306 154 -410 23 -410 c 257
 -1 -410 -28 -410 -55 -410 c 257
 -55 -324 l 257
 23 -324 l 258
 86 -324 150 -270 150 -192 c 258
EndSplineSet
EndChar

StartChar: uni060C
Encoding: 1548 1548 206
Width: 550
VWidth: 0
GlyphClass: 2
Flags: HW
LayerCount: 2
Fore
SplineSet
273 433 m 257
 329 394 l 257
 294 336 256 227 256 172 c 257
 309 172 367 148 367 88 c 256
 367 48 345 0 279 0 c 256
 216 0 183 45 183 111 c 256
 183 229 218 348 273 433 c 257
EndSplineSet
EndChar

StartChar: uni0615
Encoding: 1557 1557 207
Width: 0
VWidth: 0
GlyphClass: 4
Flags: H
AnchorPoint: "Anchor1" 0 1234 mark 0
AnchorPoint: "Anchor1" 0 1573 basemark 0
AnchorPoint: "Anchor5" 0 1234 mark 0
AnchorPoint: "Anchor4" 0 1234 mark 0
AnchorPoint: "Anchor-5" 0 1359 mark 0
AnchorPoint: "Anchor-4" 0 1359 mark 0
AnchorPoint: "Anchor-1" 0 1359 mark 0
AnchorPoint: "Anchor-1" 0 1573 basechar 0
LayerCount: 2
Fore
SplineSet
266 1712 m 256
 266 1552 69 1542 -147 1540 c 258
 -266 1540 l 257
 -266 1600 l 257
 -146 1600 l 257
 -146 2033 l 257
 -86 2033 l 257
 -86 1714 l 257
 -21 1801 56 1846 128 1846 c 256
 204 1846 266 1794 266 1712 c 256
-85 1601 m 257
 124 1606 206 1634 206 1712 c 256
 206 1760 176 1786 128 1786 c 256
 69 1786 -17 1734 -85 1601 c 257
EndSplineSet
EndChar

StartChar: uni061F
Encoding: 1567 1567 209
Width: 1067
VWidth: 0
GlyphClass: 2
Flags: HW
LayerCount: 2
Fore
SplineSet
604 405 m 257
 504 405 l 257
 504 581 416 646 325 706 c 256
 238 763 150 840 150 983 c 256
 150 1200 291 1388 539 1388 c 256
 793 1388 917 1219 917 1024 c 256
 917 998 916 971 912 942 c 257
 812 954 l 257
 816 977 817 1000 817 1024 c 256
 817 1191 725 1304 539 1304 c 256
 365 1304 250 1174 250 983 c 256
 250 874 306 827 387 774 c 256
 486 708 604 613 604 405 c 257
EndSplineSet
Refer: 165 46 N -1 0 0 1 828 0 2
EndChar

StartChar: uni0660
Encoding: 1632 1632 261
Width: 845
VWidth: 0
GlyphClass: 2
Flags: HW
LayerCount: 2
Fore
SplineSet
422 598 m 256
 325 598 250 523 250 426 c 256
 250 329 326 252 422 252 c 256
 518 252 595 329 595 426 c 256
 595 522 519 598 422 598 c 256
422 698 m 256
 573 698 695 578 695 426 c 256
 695 275 574 152 422 152 c 256
 270 152 150 275 150 426 c 256
 150 577 271 698 422 698 c 256
EndSplineSet
PairPos2: "kernHorizontalKerninginArabiclookup3 subtable" uni0661 dx=50 dy=0 dh=50 dv=0 dx=0 dy=0 dh=0 dv=0
PairPos2: "kernHorizontalKerninginArabiclookup3 subtable" uni0667 dx=-100 dy=0 dh=-100 dv=0 dx=0 dy=0 dh=0 dv=0
PairPos2: "kernHorizontalKerninginArabiclookup3 subtable" uni0666 dx=-25 dy=0 dh=-25 dv=0 dx=0 dy=0 dh=0 dv=0
PairPos2: "kernHorizontalKerninginArabiclookup3 subtable" uni0662 dx=-125 dy=0 dh=-125 dv=0 dx=0 dy=0 dh=0 dv=0
EndChar

StartChar: uni0661
Encoding: 1633 1633 262
Width: 618
VWidth: 0
GlyphClass: 2
Flags: HW
LayerCount: 2
Fore
SplineSet
468 0 m 257
 368 0 l 257
 368 460 298 752 153 1170 c 257
 247 1202 l 257
 394 776 468 470 468 0 c 257
EndSplineSet
PairPos2: "kernHorizontalKerninginArabiclookup3 subtable" uni0665 dx=-50 dy=0 dh=-50 dv=0 dx=0 dy=0 dh=0 dv=0
PairPos2: "kernHorizontalKerninginArabiclookup3 subtable" uni0660 dx=-50 dy=0 dh=-50 dv=0 dx=0 dy=0 dh=0 dv=0
EndChar

StartChar: uni0662
Encoding: 1634 1634 263
Width: 1046
VWidth: 0
GlyphClass: 2
Flags: HW
LayerCount: 2
Fore
SplineSet
567 750 m 256
 773 750 796 933 796 1202 c 257
 896 1202 l 257
 896 961 887 650 567 650 c 256
 498 650 451 664 393 707 c 257
 441 476 468 265 468 0 c 257
 368 0 l 257
 368 467 268 797 152 1173 c 257
 248 1202 l 257
 323 956 386 750 567 750 c 256
EndSplineSet
EndChar

StartChar: uni0663
Encoding: 1635 1635 264
Width: 1383
VWidth: 0
GlyphClass: 2
Flags: HW
LayerCount: 2
Fore
SplineSet
823 1183 m 257
 815 1116 810 1049 810 993 c 256
 810 856 815 755 961 755 c 256
 1101 755 1131 895 1131 1040 c 256
 1131 1090 1125 1144 1115 1196 c 257
 1213 1216 l 257
 1225 1159 1231 1100 1231 1042 c 256
 1231 849 1159 655 954 655 c 256
 824 655 778 721 740 817 c 257
 697 725 649 655 528 655 c 256
 475 655 437 666 396 692 c 257
 442 465 468 260 468 0 c 257
 368 0 l 257
 368 466 272 813 152 1172 c 257
 248 1201 l 257
 350 868 392 755 528 755 c 256
 690 755 705 919 723 1192 c 257
 823 1183 l 257
EndSplineSet
PairPos2: "kernHorizontalKerninginArabiclookup3 subtable" uni0668 dx=-50 dy=0 dh=-50 dv=0 dx=0 dy=0 dh=0 dv=0
EndChar

StartChar: uni0664
Encoding: 1636 1636 265
Width: 997
VWidth: 0
GlyphClass: 2
Flags: HW
LayerCount: 2
Fore
SplineSet
375 617 m 257
 279 655 211 768 211 889 c 256
 211 1121 416 1202 664 1202 c 257
 664 1102 l 257
 424 1102 311 1035 311 889 c 256
 311 751 437 676 671 676 c 257
 671 576 l 257
 407 576 250 402 250 250 c 256
 250 109 370 100 533 100 c 258
 797 100 l 257
 797 0 l 257
 485 0 l 258
 342 0 150 33 150 250 c 256
 150 393 240 555 375 617 c 257
EndSplineSet
PairPos2: "kernHorizontalKerninginArabiclookup3 subtable" uni0666 dx=50 dy=0 dh=50 dv=0 dx=0 dy=0 dh=0 dv=0
EndChar

StartChar: uni0665
Encoding: 1637 1637 266
Width: 1196
VWidth: 0
GlyphClass: 2
Flags: HW
LayerCount: 2
Fore
SplineSet
494 1202 m 257
 736 1001 1046 702 1046 364 c 256
 1046 100 861 0 601 0 c 256
 350 0 150 99 150 361 c 256
 150 607 287 803 533 1034 c 257
 498 1067 464 1098 430 1126 c 257
 494 1202 l 257
604 964 m 257
 366 742 250 568 250 361 c 256
 250 169 378 100 601 100 c 256
 831 100 946 164 946 364 c 256
 946 575 789 773 604 964 c 257
EndSplineSet
PairPos2: "kernHorizontalKerninginArabiclookup3 subtable" uni0661 dx=50 dy=0 dh=50 dv=0 dx=0 dy=0 dh=0 dv=0
PairPos2: "kernHorizontalKerninginArabiclookup3 subtable" uni0667 dx=-100 dy=0 dh=-100 dv=0 dx=0 dy=0 dh=0 dv=0
EndChar

StartChar: uni0666
Encoding: 1638 1638 267
Width: 1168
VWidth: 0
GlyphClass: 2
Flags: HW
LayerCount: 2
Fore
SplineSet
189 1104 m 257
 211 1202 l 257
 335 1175 481 1161 618 1161 c 256
 703 1161 786 1167 852 1178 c 257
 910 1127 l 257
 906 1034 904 946 904 861 c 256
 904 495 931 367 1017 24 c 257
 920 0 l 257
 833 347 804 491 804 861 c 256
 804 930 805 996 808 1071 c 257
 750 1064 685 1061 618 1061 c 256
 475 1061 321 1075 189 1104 c 257
EndSplineSet
PairPos2: "kernHorizontalKerninginArabiclookup3 subtable" uni0664 dx=-50 dy=0 dh=-50 dv=0 dx=0 dy=0 dh=0 dv=0
PairPos2: "kernHorizontalKerninginArabiclookup3 subtable" uni0665 dx=-175 dy=0 dh=-175 dv=0 dx=0 dy=0 dh=0 dv=0
PairPos2: "kernHorizontalKerninginArabiclookup3 subtable" uni0660 dx=-200 dy=0 dh=-200 dv=0 dx=0 dy=0 dh=0 dv=0
PairPos2: "kernHorizontalKerninginArabiclookup3 subtable" uni066B dx=-150 dy=0 dh=-150 dv=0 dx=0 dy=0 dh=0 dv=0
PairPos2: "kernHorizontalKerninginArabiclookup3 subtable" uni0668 dx=-200 dy=0 dh=-200 dv=0 dx=0 dy=0 dh=0 dv=0
EndChar

StartChar: uni0667
Encoding: 1639 1639 268
Width: 1315
VWidth: 0
GlyphClass: 2
Flags: HW
LayerCount: 2
Fore
SplineSet
1075 1202 m 257
 1155 1140 l 257
 922 837 804 577 705 0 c 257
 611 0 l 257
 512 577 393 838 160 1140 c 257
 240 1202 l 257
 446 934 563 710 658 280 c 257
 752 709 869 934 1075 1202 c 257
EndSplineSet
PairPos2: "kernHorizontalKerninginArabiclookup3 subtable" uni0660 dx=-100 dy=0 dh=-100 dv=0 dx=0 dy=0 dh=0 dv=0
PairPos2: "kernHorizontalKerninginArabiclookup3 subtable" uni0665 dx=-100 dy=0 dh=-100 dv=0 dx=0 dy=0 dh=0 dv=0
PairPos2: "kernHorizontalKerninginArabiclookup3 subtable" uni0668 dx=-150 dy=0 dh=-150 dv=0 dx=0 dy=0 dh=0 dv=0
PairPos2: "kernHorizontalKerninginArabiclookup3 subtable" uni066B dx=-125 dy=0 dh=-125 dv=0 dx=0 dy=0 dh=0 dv=0
EndChar

StartChar: uni0668
Encoding: 1640 1640 269
Width: 1315
VWidth: 0
GlyphClass: 2
Flags: HW
LayerCount: 2
Fore
SplineSet
240 0 m 257
 160 62 l 257
 393 365 511 625 610 1202 c 257
 704 1202 l 257
 803 625 922 364 1155 62 c 257
 1075 0 l 257
 869 268 752 492 657 922 c 257
 563 493 446 268 240 0 c 257
EndSplineSet
PairPos2: "kernHorizontalKerninginArabiclookup3 subtable" uni0663 dx=-200 dy=0 dh=-200 dv=0 dx=0 dy=0 dh=0 dv=0
PairPos2: "kernHorizontalKerninginArabiclookup3 subtable" uni0662 dx=-175 dy=0 dh=-175 dv=0 dx=0 dy=0 dh=0 dv=0
PairPos2: "kernHorizontalKerninginArabiclookup3 subtable" uni0667 dx=-150 dy=0 dh=-150 dv=0 dx=0 dy=0 dh=0 dv=0
EndChar

StartChar: uni0669
Encoding: 1641 1641 270
Width: 1035
VWidth: 0
GlyphClass: 2
Flags: HW
LayerCount: 2
Fore
SplineSet
681 547 m 257
 624 533 565 525 501 525 c 256
 319 525 150 595 150 801 c 256
 150 995 260 1202 467 1202 c 256
 708 1202 778 990 778 774 c 256
 778 710 778 652 779 599 c 256
 785 264 813 195 881 40 c 257
 789 0 l 257
 719 159 689 245 681 547 c 257
679 650 m 257
 678 774 l 258
 678 982 622 1102 467 1102 c 256
 342 1102 250 969 250 801 c 256
 250 673 335 625 501 625 c 256
 565 625 621 634 679 650 c 257
EndSplineSet
PairPos2: "kernHorizontalKerninginArabiclookup3 subtable" uni066B dx=200 dy=0 dh=200 dv=0 dx=0 dy=0 dh=0 dv=0
PairPos2: "kernHorizontalKerninginArabiclookup3 subtable" uni0668 dx=-150 dy=0 dh=-150 dv=0 dx=0 dy=0 dh=0 dv=0
PairPos2: "kernHorizontalKerninginArabiclookup3 subtable" uni0665 dx=-50 dy=0 dh=-50 dv=0 dx=0 dy=0 dh=0 dv=0
EndChar

StartChar: uni066B
Encoding: 1643 1643 272
Width: 787
VWidth: 0
GlyphClass: 2
Flags: HW
LayerCount: 2
Fore
SplineSet
221 -310 m 257
 127 -274 l 257
 575 870 l 257
 669 834 l 257
 221 -310 l 257
EndSplineSet
PairPos2: "kernHorizontalKerninginArabiclookup3 subtable" uni0663 dx=-150 dy=0 dh=-150 dv=0 dx=0 dy=0 dh=0 dv=0
PairPos2: "kernHorizontalKerninginArabiclookup3 subtable" uni0662 dx=-100 dy=0 dh=-100 dv=0 dx=0 dy=0 dh=0 dv=0
PairPos2: "kernHorizontalKerninginArabiclookup3 subtable" uni0667 dx=-100 dy=0 dh=-100 dv=0 dx=0 dy=0 dh=0 dv=0
PairPos2: "kernHorizontalKerninginArabiclookup3 subtable" uni06F7 dx=-100 dy=0 dh=-100 dv=0 dx=0 dy=0 dh=0 dv=0
PairPos2: "kernHorizontalKerninginArabiclookup3 subtable" uni06F0 dx=-50 dy=0 dh=-50 dv=0 dx=0 dy=0 dh=0 dv=0
PairPos2: "kernHorizontalKerninginArabiclookup3 subtable" uni06F3 dx=-75 dy=0 dh=-75 dv=0 dx=0 dy=0 dh=0 dv=0
PairPos2: "kernHorizontalKerninginArabiclookup3 subtable" uni06F2 dx=-100 dy=0 dh=-100 dv=0 dx=0 dy=0 dh=0 dv=0
PairPos2: "kernHorizontalKerninginArabiclookup3 subtable" uni066B dx=-50 dy=0 dh=-50 dv=0 dx=0 dy=0 dh=0 dv=0
EndChar

StartChar: uni066C
Encoding: 1644 1644 273
Width: 587
VWidth: 0
GlyphClass: 2
Flags: HW
LayerCount: 2
Fore
SplineSet
179 735 m 257
 121 804 l 257
 186 884 279 1029 300 1110 c 257
 242 1110 155 1160 155 1247 c 256
 155 1321 210 1386 285 1386 c 256
 362 1386 432 1337 432 1219 c 256
 432 1094 286 848 179 735 c 257
EndSplineSet
EndChar

StartChar: uni066D
Encoding: 1645 1645 274
Width: 910
VWidth: 0
GlyphClass: 2
Flags: HW
LayerCount: 2
Fore
SplineSet
492 576 m 257
 418 576 l 257
 418 916 l 257
 124 747 l 257
 86 811 l 257
 380 982 l 257
 86 1152 l 257
 124 1216 l 257
 418 1047 l 257
 418 1386 l 257
 492 1386 l 257
 492 1047 l 257
 786 1216 l 257
 824 1152 l 257
 530 982 l 257
 824 811 l 257
 786 747 l 257
 492 916 l 257
 492 576 l 257
EndSplineSet
EndChar

StartChar: uni06F4
Encoding: 1780 1780 300
Width: 1179
VWidth: 0
GlyphClass: 2
Flags: HW
LayerCount: 2
Fore
SplineSet
406 646 m 257
 444 439 468 216 468 0 c 257
 368 0 l 257
 368 462 271 796 154 1172 c 257
 250 1202 l 257
 290 1105 326 989 358 864 c 257
 386 1083 548 1222 731 1222 c 256
 801 1222 872 1201 939 1164 c 257
 892 1077 l 257
 845 1106 784 1122 731 1122 c 256
 585 1122 449 1002 449 795 c 256
 449 674 592 625 739 625 c 256
 819 625 900 639 961 664 c 257
 986 574 l 257
 906 544 817 529 731 529 c 256
 600 529 476 566 406 646 c 257
EndSplineSet
PairPos2: "kernHorizontalKerninginArabiclookup3 subtable" uni06F0 dx=-25 dy=0 dh=-25 dv=0 dx=0 dy=0 dh=0 dv=0
PairPos2: "kernHorizontalKerninginArabiclookup3 subtable" uni06F8 dx=-50 dy=0 dh=-50 dv=0 dx=0 dy=0 dh=0 dv=0
EndChar

StartChar: uni06F5
Encoding: 1781 1781 301
Width: 1276
VWidth: 0
GlyphClass: 2
Flags: HW
LayerCount: 2
Fore
SplineSet
647 99 m 257
 595 34 516 0 434 0 c 256
 288 0 150 101 150 341 c 256
 150 547 265 792 570 1036 c 257
 535 1065 497 1093 459 1120 c 257
 517 1202 l 257
 573 1163 626 1121 675 1078 c 256
 954 833 1126 574 1126 326 c 256
 1126 96 993 0 852 0 c 256
 773 0 696 35 647 99 c 257
598 274 m 257
 698 274 l 257
 698 245 l 258
 698 155 773 100 852 100 c 256
 931 100 1026 136 1026 326 c 256
 1026 520 889 742 646 969 c 257
 350 739 250 514 250 341 c 256
 250 141 350 100 434 100 c 256
 517 100 598 156 598 245 c 258
 598 274 l 257
EndSplineSet
PairPos2: "kernHorizontalKerninginArabiclookup3 subtable" uni06F1 dx=50 dy=0 dh=50 dv=0 dx=0 dy=0 dh=0 dv=0
PairPos2: "kernHorizontalKerninginArabiclookup3 subtable" uni06F2 dx=-25 dy=0 dh=-25 dv=0 dx=0 dy=0 dh=0 dv=0
PairPos2: "kernHorizontalKerninginArabiclookup3 subtable" uni06F3 dx=-25 dy=0 dh=-25 dv=0 dx=0 dy=0 dh=0 dv=0
PairPos2: "kernHorizontalKerninginArabiclookup3 subtable" uni06F7 dx=-100 dy=0 dh=-100 dv=0 dx=0 dy=0 dh=0 dv=0
PairPos2: "kernHorizontalKerninginArabiclookup3 subtable" uni06F9 dx=-75 dy=0 dh=-75 dv=0 dx=0 dy=0 dh=0 dv=0
EndChar

StartChar: uni06F6
Encoding: 1782 1782 302
Width: 1034
VWidth: 0
GlyphClass: 2
Flags: HW
LayerCount: 2
Fore
SplineSet
565 611 m 256
 679 611 767 649 840 693 c 257
 908 612 l 257
 648 437 414 255 243 0 c 257
 157 50 l 257
 284 239 432 368 605 512 c 257
 396 498 156 591 156 830 c 256
 156 1048 313 1202 514 1202 c 256
 628 1202 717 1153 776 1098 c 257
 708 1026 l 257
 665 1067 598 1102 514 1102 c 256
 369 1102 256 996 256 830 c 256
 256 684 394 611 565 611 c 256
EndSplineSet
EndChar

StartChar: uniE000
Encoding: 57344 57344 306
Width: 120
VWidth: 0
GlyphClass: 2
Flags: HW
LayerCount: 2
Fore
SplineSet
0 100 m 258
 120 100 l 257
 120 0 l 257
 0 0 l 258
 -28 0 -50 22 -50 50 c 256
 -50 78 -28 100 0 100 c 258
EndSplineSet
EndChar

StartChar: uniE001
Encoding: 57345 57345 307
Width: 320
VWidth: 0
GlyphClass: 2
Flags: HW
LayerCount: 2
Fore
SplineSet
0 100 m 258
 320 100 l 257
 320 0 l 257
 0 0 l 258
 -28 0 -50 22 -50 50 c 256
 -50 78 -28 100 0 100 c 258
EndSplineSet
EndChar

StartChar: uniE002
Encoding: 57346 57346 308
Width: 450
VWidth: 0
GlyphClass: 2
Flags: HW
LayerCount: 2
Fore
SplineSet
0 100 m 258
 450 100 l 257
 450 0 l 257
 0 0 l 258
 -28 0 -50 22 -50 50 c 256
 -50 78 -28 100 0 100 c 258
EndSplineSet
EndChar

StartChar: uniE003
Encoding: 57347 57347 309
Width: 1762
VWidth: 0
GlyphClass: 2
Flags: HW
LayerCount: 2
Fore
SplineSet
1586 1413 m 257
 1638 1359 l 257
 176 -52 l 257
 124 2 l 257
 1586 1413 l 257
EndSplineSet
EndChar

StartChar: uniE004
Encoding: 57348 57348 310
Width: 1088
VWidth: 0
GlyphClass: 2
Flags: HW
LayerCount: 2
Fore
SplineSet
180 -48 m 257
 120 -2 l 257
 908 1011 l 257
 968 965 l 257
 180 -48 l 257
EndSplineSet
EndChar

StartChar: uniE005
Encoding: 57349 57349 311
Width: 1462
VWidth: 0
GlyphClass: 2
Flags: HW
LayerCount: 2
Fore
SplineSet
1341 -30 m 257
 1283 -78 l 257
 814 482 l 257
 872 530 l 257
 1341 -30 l 257
EndSplineSet
EndChar

StartChar: uniE006
Encoding: 57350 57350 312
Width: 1146
VWidth: 0
GlyphClass: 2
Flags: HW
LayerCount: 2
Fore
SplineSet
236 87 m 257
 236 163 l 257
 910 163 l 257
 910 87 l 257
 236 87 l 257
236 413 m 257
 236 489 l 257
 910 489 l 257
 910 413 l 257
 236 413 l 257
EndSplineSet
EndChar

StartChar: uniE007
Encoding: 57351 57351 313
Width: 869
VWidth: 0
GlyphClass: 2
Flags: HW
LayerCount: 2
Fore
SplineSet
581 1543 m 257
 551 1556 508 1572 472 1572 c 256
 382 1572 325 1510 325 1457 c 256
 325 1383 374 1364 443 1343 c 256
 504 1324 587 1295 587 1201 c 256
 587 1091 457 1032 344 1032 c 256
 280 1032 224 1044 177 1066 c 257
 203 1120 l 257
 240 1102 288 1092 344 1092 c 256
 449 1092 527 1147 527 1201 c 256
 527 1249 492 1264 425 1285 c 256
 358 1306 265 1341 265 1457 c 256
 265 1552 356 1632 472 1632 c 256
 523 1632 567 1615 605 1599 c 257
 581 1543 l 257
EndSplineSet
EndChar

StartChar: uniE008
Encoding: 57352 57352 314
Width: 1454
VWidth: 0
GlyphClass: 2
Flags: HW
LayerCount: 2
Fore
SplineSet
546 1112 m 256
 546 1198 480 1273 392 1273 c 256
 304 1273 238 1198 238 1112 c 256
 238 1025 306 955 392 955 c 256
 478 955 546 1025 546 1112 c 256
620 1112 m 256
 620 985 520 881 392 881 c 256
 264 881 162 985 162 1112 c 256
 162 1234 258 1349 392 1349 c 256
 526 1349 620 1234 620 1112 c 256
EndSplineSet
EndChar

StartChar: uniE009
Encoding: 57353 57353 315
Width: 1146
VWidth: 0
GlyphClass: 2
Flags: HW
LayerCount: 2
Fore
SplineSet
536 1590 m 257
 610 1590 l 257
 610 -227 l 257
 536 -227 l 257
 536 1590 l 257
EndSplineSet
EndChar

StartChar: uniE00A
Encoding: 57354 57354 316
Width: 1214
VWidth: 0
GlyphClass: 2
Flags: HW
LayerCount: 2
Fore
SplineSet
100 455 m 257
 100 531 l 257
 684 531 l 257
 684 455 l 257
 100 455 l 257
EndSplineSet
EndChar

StartChar: uniE00B
Encoding: 57355 57355 317
Width: 1108
VWidth: 0
GlyphClass: 2
Flags: HW
LayerCount: 2
Fore
SplineSet
850 549 m 257
 820 467 l 257
 769 481 703 490 635 490 c 256
 435 490 250 415 250 254 c 256
 250 130 329 66 477 66 c 256
 634 66 786 162 786 334 c 257
 886 334 l 257
 886 104 680 -20 473 -20 c 256
 287 -20 150 84 150 259 c 256
 150 493 423 574 635 574 c 256
 713 574 787 565 850 549 c 257
EndSplineSet
EndChar

StartChar: uniE00C
Encoding: 57356 57356 318
Width: 1536
VWidth: 0
GlyphClass: 2
Flags: HW
LayerCount: 2
Fore
SplineSet
778 667 m 257
 778 834 865 1015 1082 1015 c 256
 1312 1015 1386 848 1386 667 c 258
 1386 -25 l 257
 1286 -25 l 257
 1286 667 l 258
 1286 814 1206 931 1052 931 c 256
 901 931 818 792 818 667 c 257
 778 667 l 257
EndSplineSet
EndChar

StartChar: uniE00D
Encoding: 57357 57357 319
Width: 1068
VWidth: 0
GlyphClass: 2
Flags: HW
LayerCount: 2
Fore
SplineSet
190 596 m 257
 190 846 325 1013 564 1013 c 256
 797 1013 918 852 918 616 c 258
 918 0 l 257
 818 0 l 257
 818 616 l 258
 818 815 699 929 534 929 c 256
 355 929 250 808 250 596 c 257
 190 596 l 257
EndSplineSet
EndChar

StartChar: uniE00E
Encoding: 57358 57358 320
Width: 754
VWidth: 0
GlyphClass: 2
Flags: HW
LayerCount: 2
Fore
SplineSet
250 506 m 257
 150 506 l 257
 150 740 278 995 581 995 c 258
 654 995 l 257
 654 911 l 257
 581 911 l 258
 364 911 250 726 250 506 c 257
EndSplineSet
EndChar

StartChar: uniE00F
Encoding: 57359 57359 321
Width: 1158
VWidth: 0
GlyphClass: 2
Flags: HW
LayerCount: 2
Fore
SplineSet
639 1013 m 256
 927 1013 1058 753 1058 496 c 256
 1058 239 927 -20 639 -20 c 256
 361 -20 200 210 200 496 c 256
 200 782 361 1013 639 1013 c 256
614 933 m 256
 388 933 270 737 270 496 c 256
 270 254 388 60 614 60 c 256
 840 60 958 254 958 496 c 256
 958 737 840 933 614 933 c 256
EndSplineSet
EndChar

StartChar: uniE020
Encoding: 57376 57376 331
Width: 878
VWidth: 0
GlyphClass: 2
Flags: HW
LayerCount: 2
Fore
SplineSet
669 582 m 257
 611 534 l 257
 574 578 517 619 431 619 c 256
 327 619 222 533 222 385 c 256
 222 272 333 231 508 231 c 257
 733 324 l 257
 761 254 l 257
 146 0 l 257
 118 70 l 257
 361 170 l 257
 244 193 146 251 146 385 c 256
 146 573 285 693 431 693 c 256
 543 693 622 638 669 582 c 257
EndSplineSet
EndChar

StartChar: uniE021
Encoding: 57377 57377 332
Width: 560
VWidth: 0
GlyphClass: 2
Flags: HW
LayerCount: 2
Fore
SplineSet
563 1473 m 257
 632 1442 l 257
 576 1321 514 1283 419 1283 c 256
 375 1283 320 1298 253 1322 c 256
 206 1339 169 1351 137 1351 c 256
 71 1351 27 1291 -12 1235 c 257
 -72 1272 l 257
 -3 1399 72 1439 140 1439 c 256
 184 1439 210 1437 282 1409 c 256
 350 1383 392 1367 434 1367 c 256
 486 1367 532 1409 563 1473 c 257
330 1086 m 257
 330 25 l 257
 230 25 l 257
 230 1086 l 257
 330 1086 l 257
EndSplineSet
EndChar

StartChar: uniE022
Encoding: 57378 57378 333
Width: 500
VWidth: 0
GlyphClass: 2
Flags: HW
LayerCount: 2
Fore
SplineSet
300 25 m 257
 200 25 l 257
 200 1186 l 257
 300 1186 l 257
 300 25 l 257
EndSplineSet
EndChar

StartChar: uniE023
Encoding: 57379 57379 334
Width: 1360
VWidth: 0
GlyphClass: 2
Flags: HW
LayerCount: 2
Fore
SplineSet
1220 -524 m 257
 1256 -618 l 257
 1105 -675 957 -712 765 -712 c 256
 443 -712 126 -599 126 -251 c 256
 126 184 596 362 1096 500 c 257
 613 685 l 258
 573 698 537 703 507 703 c 256
 373 703 300 610 278 417 c 257
 178 429 l 257
 202 640 303 803 507 803 c 256
 551 803 596 797 645 779 c 258
 1234 556 l 257
 1234 434 l 257
 680 284 226 119 226 -251 c 256
 226 -509 453 -612 765 -612 c 256
 945 -612 1077 -577 1220 -524 c 257
EndSplineSet
EndChar

StartChar: uniE024
Encoding: 57380 57380 335
Width: 936
VWidth: 0
GlyphClass: 2
Flags: HW
LayerCount: 2
Fore
SplineSet
808 302 m 256
 808 74 570 0 352 0 c 256
 271 0 187 11 106 32 c 257
 131 128 l 257
 204 109 279 100 352 100 c 256
 568 100 708 170 708 302 c 256
 708 454 616 607 400 789 c 257
 464 865 l 257
 688 677 808 498 808 302 c 256
EndSplineSet
EndChar

StartChar: uniE025
Encoding: 57381 57381 336
Width: 834
VWidth: 0
GlyphClass: 2
Flags: HW
LayerCount: 2
Fore
SplineSet
510 527 m 257
 602 565 l 257
 668 401 706 247 706 106 c 256
 706 -178 499 -397 167 -518 c 257
 133 -424 l 257
 436 -313 606 -134 606 106 c 256
 606 229 572 371 510 527 c 257
EndSplineSet
EndChar

StartChar: uniE026
Encoding: 57382 57382 337
Width: 2378
VWidth: 0
GlyphClass: 2
Flags: HW
LayerCount: 2
Fore
SplineSet
1963 0 m 256
 1866 0 1762 45 1708 145 c 257
 1658 54 1581 0 1473 0 c 257
 1412 0 1348 14 1286 67 c 257
 1286 -318 1022 -503 684 -503 c 256
 375 -503 128 -343 128 0 c 256
 128 130 186 355 272 514 c 257
 359 473 l 257
 277 318 228 111 228 0 c 256
 228 -265 401 -403 684 -403 c 256
 992 -403 1189 -241 1189 61 c 256
 1189 172 1146 318 1057 540 c 257
 1151 576 l 257
 1302 144 1331 100 1473 100 c 256
 1571 100 1646 163 1665 331 c 258
 1690 550 l 257
 1789 541 l 257
 1772 372 l 258
 1770 352 1770 332 1770 312 c 256
 1770 152 1867 100 1963 100 c 256
 2100 100 2150 200 2150 362 c 256
 2150 459 2128 570 2097 666 c 257
 2193 696 l 257
 2226 592 2250 473 2250 362 c 256
 2250 184 2180 0 1963 0 c 256
EndSplineSet
EndChar

StartChar: uniE027
Encoding: 57383 57383 338
Width: 2322
VWidth: 0
GlyphClass: 2
Flags: HW
LayerCount: 2
Fore
SplineSet
1671 0 m 256
 1541 0 1399 30 1289 78 c 257
 1289 -315 1029 -503 684 -503 c 256
 375 -503 128 -343 128 0 c 256
 128 130 186 355 272 514 c 257
 359 473 l 257
 277 318 228 111 228 0 c 256
 228 -265 401 -403 684 -403 c 256
 992 -403 1189 -241 1189 61 c 256
 1189 172 1146 318 1057 540 c 257
 1151 576 l 257
 1208 451 1253 321 1287 190 c 257
 1450 516 1674 649 1864 649 c 256
 2044 649 2193 530 2193 342 c 256
 2193 95 1918 0 1671 0 c 256
1378 149 m 257
 1467 117 1571 100 1671 100 c 256
 1914 100 2093 193 2093 342 c 256
 2093 468 2001 549 1864 549 c 256
 1723 549 1531 452 1378 149 c 257
EndSplineSet
EndChar

StartChar: uniE028
Encoding: 57384 57384 339
Width: 1515
VWidth: 0
GlyphClass: 2
Flags: HW
LayerCount: 2
Fore
SplineSet
528 127 m 257
 528 100 l 257
 1179 107 1265 246 1265 409 c 256
 1265 523 1177 590 1060 590 c 256
 919 590 656 467 528 127 c 257
428 100 m 257
 428 1186 l 257
 528 1186 l 257
 528 350 l 257
 682 589 906 690 1060 690 c 256
 1215 690 1365 589 1365 409 c 256
 1365 153 1171 0 478 0 c 258
 105 0 l 257
 105 100 l 257
 428 100 l 257
EndSplineSet
EndChar

StartChar: uniE029
Encoding: 57385 57385 340
Width: 1299
VWidth: 0
GlyphClass: 2
Flags: HW
LayerCount: 2
Fore
SplineSet
926 917 m 257
 850 853 l 257
 799 914 716 971 596 971 c 256
 450 971 304 851 304 644 c 256
 304 497 472 427 696 427 c 256
 783 427 873 440 954 453 c 257
 975 348 l 257
 580 297 231 153 231 -202 c 256
 231 -448 470 -594 772 -594 c 256
 905 -594 1034 -566 1129 -525 c 257
 1169 -617 l 257
 1060 -664 919 -694 772 -694 c 256
 448 -694 131 -530 131 -202 c 256
 131 67 304 242 529 341 c 257
 365 371 204 458 204 644 c 256
 204 903 394 1071 596 1071 c 256
 750 1071 861 994 926 917 c 257
EndSplineSet
EndChar

StartChar: uniE02A
Encoding: 57386 57386 341
Width: 811
VWidth: 0
GlyphClass: 2
Flags: HW
LayerCount: 2
Fore
SplineSet
0 100 m 258
 811 100 l 257
 811 0 l 257
 0 0 l 258
 -28 0 -50 22 -50 50 c 256
 -50 78 -28 100 0 100 c 258
EndSplineSet
EndChar

StartChar: uniE02B
Encoding: 57387 57387 342
Width: 1585
VWidth: 0
GlyphClass: 2
Flags: HW
LayerCount: 2
Fore
SplineSet
1315 1211 m 257
 1415 1211 l 257
 1415 492 l 258
 1415 325 1388 212 1322 136 c 256
 1233 33 1073 0 812 0 c 256
 492 0 128 34 128 365 c 256
 128 442 143 535 160 607 c 257
 258 583 l 257
 242 517 228 429 228 365 c 256
 228 142 468 100 826 100 c 256
 1060 100 1185 119 1250 193 c 256
 1301 252 1315 346 1315 492 c 258
 1315 1211 l 257
EndSplineSet
EndChar

StartChar: uniE02C
Encoding: 57388 57388 343
Width: 1268
VWidth: 0
GlyphClass: 2
Flags: HW
LayerCount: 2
Fore
SplineSet
1007 1186 m 257
 1107 1186 l 257
 1107 21 l 258
 1107 -329 922 -503 602 -503 c 256
 314 -503 128 -346 128 -74 c 256
 128 38 156 169 216 316 c 257
 307 274 l 257
 254 137 227 18 227 -80 c 256
 227 -288 367 -403 618 -403 c 256
 874 -403 1007 -275 1007 21 c 258
 1007 1186 l 257
EndSplineSet
EndChar

StartChar: uniE02D
Encoding: 57389 57389 344
Width: 1199
VWidth: 0
GlyphClass: 2
Flags: HW
LayerCount: 2
Fore
SplineSet
396 185 m 257
 413 367 498 646 760 646 c 256
 958 646 1069 460 1069 277 c 256
 1069 76 934 0 793 0 c 256
 697 0 597 27 522 57 c 256
 476 75 449 85 401 85 c 256
 300 85 228 7 228 -124 c 258
 228 -785 l 257
 128 -785 l 257
 128 -124 l 258
 128 43 232 182 396 185 c 257
495 171 m 257
 584 146 689 100 793 100 c 256
 898 100 969 136 969 277 c 256
 969 428 882 546 760 546 c 256
 589 546 510 353 495 171 c 257
EndSplineSet
EndChar

StartChar: uniE02E
Encoding: 57390 57390 345
Width: 869
VWidth: 0
GlyphClass: 2
Flags: HW
LayerCount: 2
Fore
SplineSet
435 100 m 256
 564 100 628 170 628 281 c 256
 628 400 548 537 435 646 c 257
 323 538 241 400 241 281 c 256
 241 170 306 100 435 100 c 256
435 0 m 256
 258 0 141 116 141 281 c 256
 141 476 288 655 435 780 c 257
 583 654 728 476 728 281 c 256
 728 116 612 0 435 0 c 256
EndSplineSet
EndChar

StartChar: uniE02F
Encoding: 57391 57391 346
Width: 928
VWidth: 0
GlyphClass: 2
Flags: HW
LayerCount: 2
Fore
SplineSet
698 29 m 257
 633 10 565 -1 488 -1 c 256
 315 -1 162 75 162 278 c 256
 162 468 288 675 470 675 c 256
 760 675 800 251 800 73 c 256
 800 -223 578 -408 166 -514 c 257
 141 -418 l 257
 516 -322 678 -175 698 29 c 257
698 134 m 257
 687 341 619 575 470 575 c 256
 372 575 262 438 262 278 c 256
 262 145 339 99 488 99 c 256
 567 99 629 111 698 134 c 257
EndSplineSet
EndChar

StartChar: uniE030
Encoding: 57392 57392 347
Width: 0
VWidth: 0
GlyphClass: 2
Flags: H
LayerCount: 2
Fore
SplineSet
-234 1867 m 256
 -234 1810 -217 1758 -187 1714 c 257
 -237 1680 l 257
 -273 1734 -294 1798 -294 1867 c 256
 -294 2053 -144 2203 42 2203 c 257
 42 2143 l 257
 -111 2143 -234 2019 -234 1867 c 256
EndSplineSet
EndChar

StartChar: uniE031
Encoding: 57393 57393 348
Width: 0
VWidth: 0
GlyphClass: 2
Flags: H
LayerCount: 2
Fore
SplineSet
186 1745 m 257
 210 1691 l 257
 -186 1511 l 257
 -210 1565 l 257
 186 1745 l 257
EndSplineSet
EndChar

StartChar: uniE032
Encoding: 57394 57394 349
Width: 0
VWidth: 0
GlyphClass: 2
Flags: H
LayerCount: 2
Fore
SplineSet
47 1701 m 257
 -24 1728 -100 1778 -100 1861 c 256
 -100 1948 -20 2014 54 2014 c 256
 144 2014 185 1929 185 1870 c 256
 185 1682 -21 1552 -172 1512 c 257
 -188 1570 l 257
 -107 1592 -14 1639 47 1701 c 257
87 1751 m 257
 111 1788 125 1828 125 1870 c 256
 125 1909 98 1954 54 1954 c 256
 12 1954 -40 1910 -40 1861 c 256
 -40 1817 10 1776 87 1751 c 257
EndSplineSet
EndChar

StartChar: uniE033
Encoding: 57395 57395 350
Width: 0
VWidth: 0
GlyphClass: 2
Flags: H
LayerCount: 2
Fore
SplineSet
186 1693 m 256
 186 1751 175 1794 157 1844 c 257
 213 1864 l 257
 233 1810 246 1759 246 1693 c 256
 246 1600 192 1541 124 1541 c 256
 76 1541 29 1571 0 1622 c 257
 -30 1569 -76 1541 -124 1541 c 256
 -192 1541 -246 1600 -246 1693 c 256
 -246 1759 -233 1810 -213 1864 c 257
 -157 1844 l 257
 -175 1794 -186 1751 -186 1693 c 256
 -186 1622 -152 1601 -116 1601 c 256
 -78 1601 -30 1640 -30 1704 c 258
 -30 1774 l 257
 30 1774 l 257
 30 1704 l 258
 30 1640 77 1601 116 1601 c 256
 152 1601 186 1622 186 1693 c 256
EndSplineSet
EndChar

StartChar: uniE034
Encoding: 57396 57396 351
Width: 0
VWidth: 0
GlyphClass: 2
Flags: H
LayerCount: 2
Fore
SplineSet
0 1848 m 256
 -69 1848 -124 1794 -124 1725 c 256
 -124 1656 -69 1601 0 1601 c 256
 68 1601 124 1657 124 1725 c 256
 124 1793 69 1848 0 1848 c 256
0 1908 m 256
 101 1908 184 1827 184 1725 c 256
 184 1623 102 1541 0 1541 c 256
 -103 1541 -184 1624 -184 1725 c 256
 -184 1826 -103 1908 0 1908 c 256
EndSplineSet
EndChar

StartChar: uniE035
Encoding: 57397 57397 352
Width: 0
VWidth: 0
GlyphClass: 2
Flags: H
LayerCount: 2
Fore
SplineSet
-246 1537 m 257
 -219 1593 -164 1654 -87 1654 c 256
 -53 1654 -18 1641 16 1615 c 256
 43 1594 67 1587 86 1587 c 256
 128 1587 168 1624 190 1675 c 257
 246 1651 l 257
 220 1588 164 1527 86 1527 c 256
 51 1527 15 1540 -20 1567 c 256
 -46 1587 -69 1594 -87 1594 c 256
 -130 1594 -170 1557 -192 1511 c 257
 -246 1537 l 257
EndSplineSet
EndChar

StartChar: uniE036
Encoding: 57398 57398 353
Width: 0
VWidth: 0
GlyphClass: 2
Flags: H
LayerCount: 2
Fore
SplineSet
-186 1511 m 257
 -210 1565 l 257
 -102 1615 l 257
 -147 1665 -171 1725 -171 1781 c 256
 -171 1875 -102 1957 22 1957 c 258
 104 1957 l 257
 104 1897 l 257
 22 1897 l 258
 -72 1897 -111 1843 -111 1781 c 256
 -111 1737 -89 1682 -44 1641 c 257
 186 1745 l 257
 210 1691 l 257
 -186 1511 l 257
EndSplineSet
EndChar

StartChar: uniE037
Encoding: 57399 57399 354
Width: 0
VWidth: 0
GlyphClass: 2
Flags: H
LayerCount: 2
Fore
SplineSet
-230 1818 m 257
 -182 1854 l 257
 0 1611 l 257
 182 1854 l 257
 230 1818 l 257
 0 1511 l 257
 -230 1818 l 257
EndSplineSet
EndChar

StartChar: uniE038
Encoding: 57400 57400 355
Width: 1782
VWidth: 0
GlyphClass: 2
Flags: HW
LayerCount: 2
Fore
SplineSet
1604 670 m 257
 1632 579 1650 486 1650 398 c 256
 1650 76 1356 0 891 0 c 256
 426 0 132 76 132 398 c 256
 132 486 150 579 178 670 c 257
 274 640 l 257
 248 557 232 472 232 398 c 256
 232 176 412 100 891 100 c 256
 1370 100 1550 176 1550 398 c 256
 1550 472 1534 557 1508 640 c 257
 1604 670 l 257
EndSplineSet
EndChar

StartChar: uniE039
Encoding: 57401 57401 356
Width: 1415
VWidth: 0
GlyphClass: 2
Flags: HW
LayerCount: 2
Fore
SplineSet
1185 135 m 257
 1174 342 1106 576 957 576 c 256
 859 576 749 439 749 279 c 256
 749 146 826 100 975 100 c 256
 1054 100 1116 112 1185 135 c 257
1188 32 m 257
 1123 13 1052 0 975 0 c 256
 802 0 649 76 649 279 c 256
 649 469 775 676 957 676 c 256
 1245 676 1287 260 1287 74 c 256
 1287 -311 1022 -503 684 -503 c 256
 375 -503 128 -343 128 0 c 256
 128 93 158 234 206 365 c 257
 298 333 l 257
 253 209 228 80 228 0 c 256
 228 -265 401 -403 684 -403 c 256
 982 -403 1176 -251 1188 32 c 257
EndSplineSet
EndChar

StartChar: uniE03A
Encoding: 57402 57402 357
Width: 0
VWidth: 0
GlyphClass: 2
Flags: H
LayerCount: 2
Fore
SplineSet
-30 1869 m 257
 30 1869 l 257
 30 1540 l 257
 -30 1540 l 257
 -30 1869 l 257
EndSplineSet
EndChar

StartChar: uniE03B
Encoding: 57403 57403 358
Width: 1752
VWidth: 0
GlyphClass: 2
Flags: HW
LayerCount: 2
Fore
SplineSet
1522 482 m 257
 1511 689 1443 923 1294 923 c 256
 1196 923 1086 786 1086 626 c 256
 1086 493 1163 447 1312 447 c 256
 1391 447 1453 459 1522 482 c 257
1624 421 m 256
 1624 81 1294 0 891 0 c 257
 355 0 132 82 132 398 c 256
 132 486 150 579 178 670 c 257
 274 640 l 257
 248 557 232 472 232 398 c 256
 232 170 345 100 891 100 c 257
 1279 100 1496 174 1521 377 c 257
 1456 358 1389 347 1312 347 c 256
 1139 347 986 423 986 626 c 256
 986 816 1112 1023 1294 1023 c 256
 1584 1023 1624 599 1624 421 c 256
EndSplineSet
EndChar

StartChar: uniE03C
Encoding: 57404 57404 359
Width: 1848
VWidth: 0
GlyphClass: 2
Flags: HW
LayerCount: 2
Fore
SplineSet
178 670 m 257
 274 640 l 257
 248 557 232 472 232 398 c 256
 232 169 368 100 791 100 c 256
 1132 100 1340 143 1340 321 c 256
 1340 477 1133 682 894 853 c 257
 894 994 l 257
 1117 1140 1422 1261 1687 1320 c 257
 1709 1222 l 257
 1475 1169 1197 1064 994 939 c 257
 994 905 l 257
 1229 738 1440 529 1440 321 c 256
 1440 29 1104 0 791 0 c 256
 370 0 132 83 132 398 c 256
 132 486 150 579 178 670 c 257
EndSplineSet
EndChar

StartChar: uniE03D
Encoding: 57405 57405 360
Width: 1512
VWidth: 0
GlyphClass: 2
Flags: HW
LayerCount: 2
Fore
SplineSet
1282 43 m 256
 1282 206 1198 394 1128 538 c 257
 1218 578 l 257
 1288 434 1383 234 1383 39 c 256
 1383 -326 1055 -503 727 -503 c 256
 405 -503 129 -326 129 5 c 256
 129 188 203 392 269 524 c 257
 353 473 l 257
 294 353 229 170 229 4 c 256
 229 -271 447 -403 723 -403 c 256
 1025 -403 1282 -248 1282 43 c 256
EndSplineSet
EndChar

StartChar: uniE03E
Encoding: 57406 57406 361
Width: 1449
VWidth: 0
GlyphClass: 2
Flags: HW
LayerCount: 2
Fore
SplineSet
1288 649 m 257
 1268 552 l 257
 1214 567 1162 575 1110 575 c 256
 845 575 731 442 731 270 c 256
 731 113 843 99 1037 90 c 256
 1174 84 1322 54 1322 -153 c 256
 1322 -411 1054 -503 733 -503 c 256
 432 -503 178 -384 178 -30 c 256
 178 112 213 279 237 356 c 257
 333 326 l 257
 312 258 278 99 278 -30 c 256
 278 -304 454 -403 747 -403 c 256
 1036 -403 1222 -323 1222 -153 c 256
 1222 -28 1166 -17 1025 -10 c 256
 839 -1 631 27 631 264 c 256
 631 508 788 675 1111 675 c 256
 1170 675 1229 667 1288 649 c 257
EndSplineSet
EndChar

StartChar: uniE03F
Encoding: 57407 57407 362
Width: 1864
VWidth: 0
GlyphClass: 2
Flags: HW
LayerCount: 2
Fore
SplineSet
1864 100 m 257
 1864 0 l 257
 1863 0 l 258
 1621 0 1514 100 1431 243 c 257
 1375 23 1073 0 791 0 c 256
 370 0 132 83 132 398 c 256
 132 486 150 579 178 670 c 257
 274 640 l 257
 248 557 232 472 232 398 c 256
 232 169 368 100 791 100 c 256
 1132 100 1340 143 1340 321 c 256
 1340 477 1133 682 894 853 c 257
 894 994 l 257
 1117 1140 1422 1261 1687 1320 c 257
 1709 1222 l 257
 1475 1169 1197 1064 994 939 c 257
 994 905 l 257
 1278 709 1398 525 1483 358 c 256
 1570 188 1626 100 1863 100 c 258
 1864 100 l 257
EndSplineSet
EndChar

StartChar: uniE040
Encoding: 57408 57408 363
Width: 1660
VWidth: 0
GlyphClass: 2
Flags: HW
LayerCount: 2
Fore
SplineSet
270 524 m 257
 354 473 l 257
 294 352 229 172 229 5 c 256
 229 -269 446 -403 724 -403 c 256
 1026 -403 1282 -248 1282 43 c 256
 1282 206 1198 394 1128 538 c 257
 1217 576 l 257
 1342 282 l 258
 1395 157 1467 100 1659 100 c 258
 1660 100 l 257
 1660 0 l 257
 1659 0 l 258
 1546 0 1457 19 1383 67 c 257
 1383 -325 1075 -503 728 -503 c 256
 403 -503 129 -325 129 7 c 256
 129 192 203 392 270 524 c 257
EndSplineSet
EndChar

StartChar: uniE041
Encoding: 57409 57409 364
Width: 547
VWidth: 0
GlyphClass: 2
Flags: HW
HStem: 0 100<-14 121.5 -14 154>
VStem: 322 93<296 425>
LayerCount: 2
Fore
SplineSet
350 732 m 257
 390 610 415 489 415 382 c 256
 415 162 308 0 0 0 c 256
 -28 0 -50 22 -50 50 c 256
 -50 78 -28 100 0 100 c 256
 243 100 322 215 322 377 c 256
 322 473 294 585 256 700 c 257
 350 732 l 257
EndSplineSet
PickledDataWithLists: "(dp0
Vcom.fontlab.hintData
p1
(dp2
Vhhints
p3
(lp4
(dp5
Vposition
p6
I0
sVwidth
p7
I100
sasVvhints
p8
(lp9
(dp10
g6
I322
sg7
I93
sass."
EndChar

StartChar: uniE042
Encoding: 57410 57410 365
Width: 767
VWidth: 0
GlyphClass: 2
Flags: HW
HStem: 0 100<-14 71 -14 96 766 767>
VStem: 334 100<492 569 434 569>
LayerCount: 2
Fore
SplineSet
0 100 m 256
 142 100 227 135 276 208 c 256
 319 273 334 367 334 492 c 258
 334 569 l 257
 434 569 l 257
 434 492 l 258
 434 376 446 286 483 222 c 256
 530 140 616 100 766 100 c 258
 767 100 l 257
 767 0 l 257
 766 0 l 257
 575 0 447 63 384 198 c 257
 321 64 192 0 0 0 c 256
 -28 0 -50 22 -50 50 c 256
 -50 78 -28 100 0 100 c 256
EndSplineSet
PickledDataWithLists: "(dp0
Vcom.fontlab.hintData
p1
(dp2
Vhhints
p3
(lp4
(dp5
Vposition
p6
I0
sVwidth
p7
I100
sasVvhints
p8
(lp9
(dp10
g6
I334
sg7
I100
sass."
EndChar

StartChar: uniE043
Encoding: 57411 57411 366
Width: 1453
VWidth: 0
GlyphClass: 2
Flags: HW
LayerCount: 2
Fore
SplineSet
1453 100 m 257
 1453 0 l 257
 1200 0 l 257
 1285 -42 1322 -125 1322 -208 c 256
 1322 -421 1111 -583 738 -583 c 256
 368 -583 140 -411 140 -60 c 256
 140 154 200 330 277 501 c 257
 367 454 l 257
 294 291 238 129 238 -71 c 256
 238 -355 414 -483 734 -483 c 256
 1105 -483 1222 -322 1222 -224 c 256
 1222 -91 1084 0 742 0 c 257
 742 100 l 257
 1453 100 l 257
EndSplineSet
EndChar

StartChar: uniE044
Encoding: 57412 57412 367
Width: 596
VWidth: 0
GlyphClass: 2
Flags: HW
LayerCount: 2
Fore
SplineSet
200 1186 m 257
 300 1186 l 257
 300 366 l 258
 300 274 314 210 351 168 c 256
 395 118 472 100 595 100 c 257
 596 100 l 257
 596 0 l 257
 595 0 l 257
 454 0 351 33 285 102 c 256
 228 162 200 249 200 366 c 258
 200 1186 l 257
EndSplineSet
EndChar

StartChar: uniE045
Encoding: 57413 57413 368
Width: 1398
VWidth: 0
GlyphClass: 2
Flags: HW
LayerCount: 2
Fore
SplineSet
1220 -524 m 257
 1256 -618 l 257
 1105 -675 957 -712 765 -712 c 256
 443 -712 126 -599 126 -251 c 256
 126 184 596 362 1096 500 c 257
 613 685 l 258
 573 698 537 703 507 703 c 256
 373 703 300 610 278 417 c 257
 178 429 l 257
 202 640 303 803 507 803 c 256
 551 803 596 797 645 779 c 258
 1234 556 l 257
 1234 434 l 257
 1152 412 1072 389 996 366 c 257
 1082 230 1185 100 1397 100 c 258
 1398 100 l 257
 1398 0 l 257
 1397 0 l 258
 1140 0 1001 157 897 334 c 257
 507 204 226 40 226 -251 c 256
 226 -509 453 -612 765 -612 c 256
 945 -612 1077 -577 1220 -524 c 257
EndSplineSet
EndChar

StartChar: uniE046
Encoding: 57414 57414 369
Width: 1316
VWidth: 0
GlyphClass: 2
Flags: HW
LayerCount: 2
Fore
SplineSet
126 414 m 257
 156 598 231 802 436 802 c 256
 491 802 553 786 620 754 c 258
 1157 511 l 257
 1157 389 l 257
 782 125 462 0 0 0 c 256
 -27 0 -50 23 -50 50 c 256
 -50 77 -27 100 0 100 c 256
 425 100 725 207 1049 445 c 257
 576 664 l 258
 519 691 473 702 436 702 c 256
 319 702 254 584 224 398 c 257
 126 414 l 257
EndSplineSet
EndChar

StartChar: uniE047
Encoding: 57415 57415 370
Width: 1316
VWidth: 0
GlyphClass: 2
Flags: HW
LayerCount: 2
Fore
SplineSet
126 414 m 257
 156 598 231 802 436 802 c 256
 491 802 553 786 620 754 c 258
 1157 511 l 257
 1157 389 l 257
 1097 347 1038 307 980 272 c 257
 1053 178 1140 100 1315 100 c 258
 1316 100 l 257
 1316 0 l 257
 1315 0 l 258
 1105 0 981 100 891 221 c 257
 618 71 350 0 0 0 c 256
 -27 0 -50 23 -50 50 c 256
 -50 77 -27 100 0 100 c 256
 425 100 725 207 1049 445 c 257
 576 664 l 258
 519 691 473 702 436 702 c 256
 319 702 254 584 224 398 c 257
 126 414 l 257
EndSplineSet
EndChar

StartChar: uniE048
Encoding: 57416 57416 371
Width: 1180
VWidth: 0
GlyphClass: 2
Flags: HW
LayerCount: 2
Fore
SplineSet
1180 100 m 257
 1180 0 l 257
 1179 0 l 257
 1012 0 892 40 794 202 c 257
 737 64 584 0 429 0 c 256
 308 0 183 28 80 105 c 257
 137 187 l 257
 225 122 328 100 429 100 c 256
 595 100 715 183 715 311 c 256
 715 344 707 383 687 429 c 258
 524 812 l 257
 616 852 l 257
 815 385 l 258
 923 130 996 100 1179 100 c 257
 1180 100 l 257
EndSplineSet
EndChar

StartChar: uniE049
Encoding: 57417 57417 372
Width: 960
VWidth: 0
GlyphClass: 2
Flags: HW
LayerCount: 2
Fore
SplineSet
510 527 m 257
 602 565 l 257
 692 260 l 258
 726 146 793 100 959 100 c 257
 960 100 l 257
 960 0 l 257
 959 0 l 257
 849 0 766 25 705 73 c 257
 693 -195 486 -401 167 -518 c 257
 133 -424 l 257
 436 -313 606 -134 606 106 c 256
 606 198 596 289 510 527 c 257
EndSplineSet
EndChar

StartChar: uniE04A
Encoding: 57418 57418 373
Width: 2614
VWidth: 0
GlyphClass: 2
Flags: HW
LayerCount: 2
Fore
SplineSet
2213 650 m 257
 2251 456 l 258
 2300 216 2324 100 2613 100 c 257
 2614 100 l 257
 2614 0 l 257
 2613 0 l 257
 2389 0 2284 77 2225 194 c 257
 2190 85 2112 0 1963 0 c 256
 1866 0 1762 45 1708 145 c 257
 1658 54 1581 0 1473 0 c 257
 1412 0 1348 14 1286 67 c 257
 1286 -318 1022 -503 684 -503 c 256
 375 -503 128 -343 128 0 c 256
 128 130 186 355 272 514 c 257
 359 473 l 257
 277 318 228 111 228 0 c 256
 228 -265 401 -403 684 -403 c 256
 992 -403 1189 -241 1189 61 c 256
 1189 172 1146 318 1057 540 c 257
 1151 576 l 257
 1302 144 1331 100 1473 100 c 256
 1571 100 1646 163 1665 331 c 258
 1690 550 l 257
 1789 541 l 257
 1772 372 l 258
 1770 352 1770 332 1770 312 c 256
 1770 152 1867 100 1963 100 c 256
 2102 100 2149 201 2149 360 c 256
 2149 412 2146 465 2137 516 c 258
 2115 630 l 257
 2213 650 l 257
EndSplineSet
EndChar

StartChar: uniE04B
Encoding: 57419 57419 374
Width: 1538
VWidth: 0
GlyphClass: 2
Flags: HW
LayerCount: 2
Fore
SplineSet
1369 649 m 257
 1395 528 1410 448 1410 318 c 256
 1410 242 1391 172 1355 118 c 256
 1307 46 1229 0 1128 0 c 256
 1008 0 924 69 880 158 c 257
 836 69 752 0 632 0 c 256
 501 0 415 82 373 183 c 257
 310 65 192 0 0 0 c 256
 -28 0 -50 22 -50 50 c 256
 -50 78 -28 100 0 100 c 256
 132 100 215 128 266 192 c 256
 316 255 334 353 334 492 c 258
 334 569 l 257
 434 569 l 257
 434 410 l 258
 434 302 458 211 501 159 c 256
 532 121 572 100 632 100 c 256
 692 100 732 121 763 159 c 256
 806 211 830 302 830 410 c 258
 830 559 l 257
 930 559 l 257
 930 410 l 258
 930 302 954 211 997 159 c 256
 1028 121 1068 100 1128 100 c 256
 1198 100 1247 130 1276 178 c 256
 1299 216 1310 264 1310 318 c 256
 1310 441 1296 518 1272 628 c 257
 1369 649 l 257
EndSplineSet
EndChar

StartChar: uniE04C
Encoding: 57420 57420 375
Width: 1735
VWidth: 0
GlyphClass: 2
Flags: HW
LayerCount: 2
Fore
SplineSet
1369 649 m 257
 1402 411 l 258
 1418 309 1443 231 1493 179 c 256
 1543 127 1618 100 1734 100 c 257
 1735 100 l 257
 1735 0 l 257
 1734 0 l 257
 1567 0 1449 54 1380 164 c 257
 1339 69 1252 0 1128 0 c 256
 1008 0 924 69 880 158 c 257
 836 69 752 0 632 0 c 256
 501 0 415 82 373 183 c 257
 310 65 192 0 0 0 c 256
 -28 0 -50 22 -50 50 c 256
 -50 78 -28 100 0 100 c 256
 131 100 214 128 265 190 c 256
 316 253 334 351 334 492 c 258
 334 569 l 257
 434 569 l 257
 434 410 l 258
 434 302 458 211 501 159 c 256
 532 121 572 100 632 100 c 256
 697 100 742 127 773 170 c 256
 815 229 830 318 830 410 c 258
 830 559 l 257
 930 559 l 257
 930 410 l 258
 930 322 944 237 982 178 c 256
 1013 130 1059 100 1128 100 c 256
 1194 100 1241 127 1271 170 c 256
 1297 208 1310 260 1310 318 c 256
 1310 388 1298 478 1271 633 c 257
 1369 649 l 257
EndSplineSet
EndChar

StartChar: uniE04D
Encoding: 57421 57421 376
Width: 2416
VWidth: 0
GlyphClass: 2
Flags: HW
LayerCount: 2
Fore
SplineSet
1287 190 m 257
 1450 516 1674 649 1864 649 c 256
 2044 649 2193 530 2193 342 c 256
 2193 284 2177 234 2151 192 c 257
 2190 138 2260 100 2415 100 c 257
 2416 100 l 257
 2416 0 l 257
 2415 0 l 257
 2254 0 2147 42 2083 117 c 257
 1980 35 1821 0 1671 0 c 256
 1541 0 1399 30 1289 78 c 257
 1289 -315 1029 -503 684 -503 c 256
 375 -503 128 -343 128 0 c 256
 128 130 186 355 272 514 c 257
 359 473 l 257
 277 318 228 111 228 0 c 256
 228 -265 401 -403 684 -403 c 256
 992 -403 1189 -241 1189 61 c 256
 1189 172 1146 318 1057 540 c 257
 1151 576 l 257
 1208 451 1253 321 1287 190 c 257
1378 149 m 257
 1467 117 1571 100 1671 100 c 256
 1914 100 2093 193 2093 342 c 256
 2093 468 2001 549 1864 549 c 256
 1723 549 1531 452 1378 149 c 257
EndSplineSet
EndChar

StartChar: uniE04E
Encoding: 57422 57422 377
Width: 1612
VWidth: 0
GlyphClass: 2
Flags: HW
LayerCount: 2
Fore
SplineSet
0 100 m 256
 126 100 202 128 249 176 c 256
 304 232 332 329 334 477 c 258
 334 569 l 257
 434 569 l 257
 434 344 l 258
 434 245 462 193 511 159 c 257
 701 543 959 690 1157 690 c 256
 1312 690 1462 589 1462 409 c 256
 1462 146 1098 0 829 0 c 256
 610 0 444 32 371 173 c 257
 304 55 179 0 0 0 c 256
 -28 0 -50 22 -50 50 c 256
 -50 78 -28 100 0 100 c 256
603 121 m 257
 661 106 738 100 829 100 c 256
 1090 100 1362 250 1362 409 c 256
 1362 523 1274 590 1157 590 c 256
 1010 590 782 479 603 121 c 257
EndSplineSet
EndChar

StartChar: uniE04F
Encoding: 57423 57423 378
Width: 1635
VWidth: 0
GlyphClass: 2
Flags: HW
LayerCount: 2
Fore
SplineSet
603 121 m 257
 661 106 738 100 829 100 c 256
 1090 100 1362 250 1362 409 c 256
 1362 523 1274 590 1157 590 c 256
 1010 590 782 479 603 121 c 257
434 569 m 257
 434 344 l 258
 434 248 462 193 511 159 c 257
 701 543 959 690 1157 690 c 256
 1312 690 1462 589 1462 409 c 256
 1462 326 1426 255 1368 196 c 257
 1416 130 1495 100 1634 100 c 257
 1635 100 l 257
 1635 0 l 257
 1634 0 l 257
 1478 0 1361 42 1291 133 c 257
 1161 46 980 0 829 0 c 256
 611 0 443 31 370 172 c 257
 303 55 179 0 0 0 c 256
 -27 0 -50 23 -50 50 c 256
 -50 77 -27 100 0 100 c 256
 131 100 214 131 264 192 c 256
 317 257 334 357 334 492 c 258
 334 569 l 257
 434 569 l 257
EndSplineSet
EndChar

StartChar: uniE050
Encoding: 57424 57424 379
Width: 1538
VWidth: 0
GlyphClass: 2
Flags: HW
LayerCount: 2
Fore
SplineSet
528 100 m 257
 1179 107 1265 246 1265 409 c 256
 1265 523 1177 590 1060 590 c 256
 919 590 656 440 528 100 c 257
428 100 m 257
 428 1186 l 257
 528 1186 l 257
 528 323 l 257
 682 562 906 690 1060 690 c 256
 1215 690 1365 589 1365 409 c 256
 1365 321 1342 245 1283 183 c 257
 1325 126 1417 100 1537 100 c 257
 1538 100 l 257
 1538 0 l 257
 1537 0 l 257
 1382 0 1280 37 1204 121 c 257
 1072 43 845 0 478 0 c 258
 105 0 l 257
 105 100 l 257
 428 100 l 257
EndSplineSet
EndChar

StartChar: uniE051
Encoding: 57425 57425 380
Width: 1317
VWidth: 0
GlyphClass: 2
Flags: HW
LayerCount: 2
Fore
SplineSet
308 100 m 257
 959 107 1045 246 1045 409 c 256
 1045 523 957 590 840 590 c 256
 698 590 436 440 308 100 c 257
0 100 m 258
 208 100 l 257
 208 1186 l 257
 308 1186 l 257
 308 323 l 257
 462 562 686 690 840 690 c 256
 995 690 1145 589 1145 409 c 256
 1145 153 951 0 258 0 c 258
 0 0 l 258
 -28 0 -50 22 -50 50 c 256
 -50 78 -28 100 0 100 c 258
EndSplineSet
EndChar

StartChar: uniE052
Encoding: 57426 57426 381
Width: 1318
VWidth: 0
GlyphClass: 2
Flags: HW
LayerCount: 2
Fore
SplineSet
308 100 m 257
 960 107 1045 246 1045 409 c 256
 1045 523 957 590 840 590 c 256
 699 590 436 440 308 100 c 257
0 100 m 258
 208 101 l 257
 208 1186 l 257
 308 1186 l 257
 308 323 l 257
 462 562 685 690 840 690 c 256
 995 690 1145 589 1145 409 c 256
 1145 321 1122 245 1063 183 c 257
 1107 125 1197 100 1317 100 c 257
 1318 100 l 257
 1318 0 l 257
 1317 0 l 257
 1162 0 1059 37 984 121 c 257
 852 43 625 0 258 0 c 258
 0 0 l 258
 -28 0 -50 22 -50 50 c 256
 -50 78 -28 100 0 100 c 258
EndSplineSet
EndChar

StartChar: uniE053
Encoding: 57427 57427 382
Width: 1144
VWidth: 0
GlyphClass: 2
Flags: HW
LayerCount: 2
Fore
SplineSet
972 458 m 256
 972 318 859 232 750 166 c 257
 862 125 989 100 1143 100 c 257
 1144 100 l 257
 1144 0 l 257
 1143 0 l 257
 941 0 778 36 639 104 c 257
 433 18 215 -115 215 -326 c 256
 215 -496 429 -640 722 -640 c 256
 825 -640 934 -621 1039 -582 c 257
 1074 -676 l 257
 958 -720 837 -740 723 -740 c 256
 410 -740 115 -585 115 -328 c 256
 115 -73 336 76 530 165 c 257
 389 254 276 365 177 472 c 257
 182 592 l 257
 277 670 429 722 594 722 c 256
 783 722 972 626 972 458 c 256
872 457 m 256
 872 537 760 622 596 622 c 256
 475 622 350 588 281 542 c 257
 279 513 l 257
 381 405 499 294 642 215 c 257
 776 278 872 361 872 457 c 256
EndSplineSet
EndChar

StartChar: uniE054
Encoding: 57428 57428 383
Width: 1083
VWidth: 0
GlyphClass: 2
Flags: HW
LayerCount: 2
Fore
SplineSet
253 386 m 256
 253 251 383 174 558 174 c 256
 581 174 604 174 623 177 c 258
 896 229 l 257
 914 131 l 257
 447 42 l 258
 305 15 159 0 0 0 c 256
 -28 0 -50 22 -50 50 c 256
 -50 78 -28 100 0 100 c 256
 114 100 221 108 325 123 c 257
 226 172 153 261 153 386 c 256
 153 633 334 793 527 793 c 256
 674 793 779 723 842 648 c 257
 766 584 l 257
 719 641 640 693 527 693 c 256
 390 693 253 581 253 386 c 256
EndSplineSet
EndChar

StartChar: uniE055
Encoding: 57429 57429 384
Width: 1026
VWidth: 0
GlyphClass: 2
Flags: HW
LayerCount: 2
Fore
SplineSet
118 552 m 257
 203 658 375 721 549 721 c 256
 720 721 912 631 912 424 c 256
 912 306 834 206 727 144 c 257
 816 116 914 100 1025 100 c 257
 1026 100 l 257
 1026 0 l 257
 1025 0 l 257
 862 0 720 33 598 85 c 257
 439 28 208 0 0 0 c 256
 -28 0 -50 22 -50 50 c 256
 -50 78 -28 100 0 100 c 256
 158 100 342 117 470 150 c 257
 336 229 222 336 118 437 c 257
 118 552 l 257
218 514 m 257
 218 481 l 257
 335 372 456 263 601 194 c 257
 731 248 812 337 812 424 c 256
 812 551 696 621 549 621 c 256
 419 621 281 574 218 514 c 257
EndSplineSet
EndChar

StartChar: uniE056
Encoding: 57430 57430 385
Width: 1748
VWidth: 0
GlyphClass: 2
Flags: HW
LayerCount: 2
Fore
SplineSet
1315 1211 m 257
 1415 1211 l 257
 1415 492 l 258
 1415 329 1439 217 1522 156 c 256
 1573 119 1645 100 1747 100 c 258
 1748 100 l 257
 1748 0 l 257
 1747 0 l 258
 1638 0 1544 22 1473 70 c 256
 1426 102 1390 145 1365 201 c 257
 1353 177 1339 155 1322 136 c 256
 1233 33 1073 0 812 0 c 256
 492 0 128 34 128 365 c 256
 128 442 143 535 160 607 c 257
 258 583 l 257
 242 517 228 429 228 365 c 256
 228 142 468 100 826 100 c 256
 1060 100 1185 119 1250 193 c 256
 1301 252 1315 346 1315 492 c 258
 1315 1211 l 257
EndSplineSet
EndChar

StartChar: uniE057
Encoding: 57431 57431 386
Width: 999
VWidth: 0
GlyphClass: 2
Flags: HW
LayerCount: 2
Fore
SplineSet
0 100 m 258
 121 100 l 258
 403 100 491 164 491 321 c 256
 491 477 284 682 45 853 c 257
 45 994 l 257
 268 1140 573 1261 838 1320 c 257
 860 1222 l 257
 626 1169 348 1064 145 939 c 257
 145 905 l 257
 380 738 591 529 591 321 c 256
 591 84 413 0 121 0 c 258
 0 0 l 258
 -28 0 -50 22 -50 50 c 256
 -50 78 -28 100 0 100 c 258
EndSplineSet
EndChar

StartChar: uniE058
Encoding: 57432 57432 387
Width: 1020
VWidth: 0
GlyphClass: 2
Flags: HW
LayerCount: 2
Fore
SplineSet
0 100 m 258
 121 100 l 258
 403 100 491 164 491 321 c 256
 491 477 284 682 45 853 c 257
 45 994 l 257
 268 1140 573 1261 838 1320 c 257
 860 1222 l 257
 626 1169 348 1064 145 939 c 257
 145 905 l 257
 429 709 549 525 634 358 c 256
 720 188 782 100 1019 100 c 258
 1020 100 l 257
 1020 0 l 257
 1019 0 l 258
 778 0 668 98 583 241 c 257
 546 65 377 0 121 0 c 258
 0 0 l 258
 -28 0 -50 22 -50 50 c 256
 -50 78 -28 100 0 100 c 258
EndSplineSet
EndChar

StartChar: uniE059
Encoding: 57433 57433 388
Width: 1439
VWidth: 0
GlyphClass: 2
Flags: HW
LayerCount: 2
Fore
SplineSet
1439 100 m 257
 1439 0 l 257
 1438 0 l 257
 1290 0 1179 35 1107 118 c 257
 1107 21 l 258
 1107 -329 922 -503 602 -503 c 256
 314 -503 128 -346 128 -74 c 256
 128 38 156 169 216 316 c 257
 307 274 l 257
 254 137 227 18 227 -80 c 256
 227 -288 367 -403 618 -403 c 256
 874 -403 1007 -275 1007 21 c 258
 1007 1186 l 257
 1107 1186 l 257
 1107 492 l 258
 1107 348 1129 250 1176 191 c 256
 1222 133 1299 100 1438 100 c 257
 1439 100 l 257
EndSplineSet
EndChar

StartChar: uniE05A
Encoding: 57434 57434 389
Width: 596
VWidth: 0
GlyphClass: 2
Flags: HW
LayerCount: 2
Fore
SplineSet
396 366 m 258
 396 249 368 162 311 102 c 256
 245 33 142 0 0 0 c 256
 -27 0 -50 23 -50 50 c 256
 -50 77 -27 100 0 100 c 256
 124 100 201 118 245 168 c 256
 282 210 296 274 296 366 c 258
 296 1186 l 257
 396 1186 l 257
 396 366 l 258
EndSplineSet
EndChar

StartChar: uniE05B
Encoding: 57435 57435 390
Width: 692
VWidth: 0
GlyphClass: 2
Flags: HW
LayerCount: 2
Fore
SplineSet
0 100 m 256
 120 100 194 128 238 185 c 256
 283 243 296 331 296 449 c 258
 296 1186 l 257
 396 1186 l 257
 396 449 l 258
 396 335 409 249 450 191 c 256
 493 130 568 100 691 100 c 257
 692 100 l 257
 692 0 l 257
 691 0 l 257
 522 0 405 55 346 172 c 257
 287 55 170 0 0 0 c 256
 -28 0 -50 22 -50 50 c 256
 -50 78 -28 100 0 100 c 256
EndSplineSet
EndChar

StartChar: uniE05C
Encoding: 57436 57436 391
Width: 1329
VWidth: 0
GlyphClass: 2
Flags: HW
LayerCount: 2
Fore
SplineSet
495 171 m 257
 584 146 689 100 793 100 c 256
 898 100 969 136 969 277 c 256
 969 428 882 546 760 546 c 256
 589 546 510 353 495 171 c 257
1329 0 m 257
 1328 0 l 257
 1208 0 1117 35 1036 128 c 257
 987 38 891 0 793 0 c 256
 697 0 597 27 522 57 c 256
 476 75 449 85 401 85 c 256
 300 85 228 7 228 -124 c 258
 228 -785 l 257
 128 -785 l 257
 128 -124 l 258
 128 43 232 182 396 185 c 257
 413 367 498 646 760 646 c 256
 939 646 1047 494 1066 330 c 256
 1085 163 1174 100 1328 100 c 257
 1329 100 l 257
 1329 0 l 257
EndSplineSet
EndChar

StartChar: uniE05D
Encoding: 57437 57437 392
Width: 1046
VWidth: 0
GlyphClass: 2
Flags: HW
LayerCount: 2
Fore
SplineSet
0 100 m 256
 122 100 175 151 231 271 c 256
 246 303 260 340 275 381 c 256
 331 534 435 666 605 666 c 256
 801 666 918 466 918 297 c 256
 918 136 796 0 626 0 c 256
 473 0 379 86 296 180 c 257
 234 70 144 0 0 0 c 256
 -28 0 -50 22 -50 50 c 256
 -50 78 -28 100 0 100 c 256
344 281 m 257
 400 194 501 100 627 100 c 256
 732 100 818 184 818 297 c 256
 818 432 723 566 605 566 c 256
 497 566 419 484 369 346 c 258
 344 281 l 257
EndSplineSet
EndChar

StartChar: uniE05E
Encoding: 57438 57438 393
Width: 1238
VWidth: 0
GlyphClass: 2
Flags: HW
LayerCount: 2
Fore
SplineSet
0 100 m 256
 122 100 175 151 231 271 c 256
 246 303 260 340 275 381 c 256
 331 534 435 666 605 666 c 256
 786 666 899 497 916 338 c 257
 927 275 947 226 975 191 c 256
 1021 133 1098 100 1237 100 c 257
 1238 100 l 257
 1238 0 l 257
 1237 0 l 257
 1072 0 952 46 882 150 c 257
 835 61 735 0 628 0 c 256
 474 0 379 86 296 180 c 257
 234 70 144 0 0 0 c 256
 -28 0 -50 22 -50 50 c 256
 -50 78 -28 100 0 100 c 256
344 281 m 257
 400 194 502 100 628 100 c 256
 733 100 818 184 818 297 c 256
 818 432 723 566 605 566 c 256
 497 566 419 484 369 346 c 258
 344 281 l 257
EndSplineSet
EndChar

StartChar: uniE05F
Encoding: 57439 57439 394
Width: 1041
VWidth: 0
GlyphClass: 2
Flags: HW
LayerCount: 2
Fore
SplineSet
627 695 m 257
 397 659 230 550 230 422 c 256
 230 312 327 255 477 255 c 256
 522 255 604 269 654 284 c 257
 627 695 l 257
1041 0 m 257
 1040 0 l 257
 843 0 739 60 682 186 c 257
 621 168 533 155 477 155 c 256
 311 155 130 228 130 422 c 256
 130 642 378 759 621 795 c 257
 613 935 l 257
 713 941 l 257
 745 402 l 258
 757 199 811 100 1040 100 c 257
 1041 100 l 257
 1041 0 l 257
EndSplineSet
EndChar

StartChar: uniE060
Encoding: 57440 57440 395
Width: 1293
VWidth: 0
GlyphClass: 2
Flags: HW
LayerCount: 2
Fore
SplineSet
0 100 m 256
 127 100 244 112 342 137 c 257
 236 202 147 300 147 436 c 256
 147 575 250 701 359 746 c 257
 185 810 l 257
 227 913 l 257
 656 744 l 258
 883 654 1165 538 1165 285 c 256
 1165 129 1061 0 854 0 c 256
 763 0 599 26 473 74 c 257
 342 23 179 0 0 0 c 256
 -28 0 -50 22 -50 50 c 256
 -50 78 -28 100 0 100 c 256
472 183 m 257
 592 239 664 324 664 446 c 256
 664 575 620 681 499 681 c 256
 393 681 247 592 247 436 c 256
 247 323 344 239 472 183 c 257
597 139 m 257
 696 112 794 100 854 100 c 256
 1011 100 1065 179 1065 285 c 256
 1065 423 930 524 739 605 c 257
 809 408 736 236 597 139 c 257
EndSplineSet
EndChar

StartChar: uniE061
Encoding: 57441 57441 396
Width: 986
VWidth: 0
GlyphClass: 2
Flags: HW
LayerCount: 2
Fore
SplineSet
278 119 m 257
 577 164 705 278 705 422 c 256
 705 566 642 617 544 617 c 256
 388 617 283 448 278 119 c 257
986 0 m 257
 985 0 l 257
 821 0 750 -45 750 -185 c 258
 750 -437 l 257
 646 -502 l 257
 404 -489 221 -265 184 7 c 257
 126 2 65 0 0 0 c 256
 -27 0 -50 23 -50 50 c 256
 -50 77 -27 100 0 100 c 256
 63 100 123 102 178 107 c 257
 180 445 290 717 544 717 c 256
 698 717 805 608 805 422 c 256
 805 198 598 63 283 18 c 257
 315 -212 480 -389 633 -401 c 257
 650 -391 l 257
 650 -185 l 258
 650 23 796 100 985 100 c 257
 986 100 l 257
 986 0 l 257
EndSplineSet
EndChar

StartChar: uniE062
Encoding: 57442 57442 397
Width: 928
VWidth: 0
GlyphClass: 2
Flags: HW
LayerCount: 2
Fore
SplineSet
795 0 m 257
 760 -256 542 -418 166 -514 c 257
 141 -418 l 257
 498 -327 662 -188 694 0 c 257
 488 0 l 258
 315 0 162 76 162 279 c 256
 162 469 288 676 470 676 c 256
 748 676 796 284 800 100 c 257
 928 100 l 257
 928 0 l 257
 795 0 l 257
700 100 m 257
 695 307 629 576 470 576 c 256
 372 576 262 439 262 279 c 256
 262 146 339 100 488 100 c 258
 700 100 l 257
EndSplineSet
EndChar

StartChar: uniE063
Encoding: 57443 57443 398
Width: 1033
VWidth: 0
GlyphClass: 2
Flags: HW
LayerCount: 2
Fore
SplineSet
656 530 m 257
 541 378 404 256 288 169 c 257
 288 147 l 257
 347 120 446 100 528 100 c 256
 674 100 771 137 771 228 c 256
 771 292 729 405 656 530 c 257
658 712 m 257
 747 863 808 987 808 1186 c 257
 908 1186 l 257
 908 948 829 791 719 620 c 257
 809 474 871 336 871 228 c 256
 871 35 666 0 528 0 c 256
 399 0 273 37 188 89 c 257
 188 219 l 257
 322 320 473 445 599 621 c 257
 471 814 288 966 125 1080 c 257
 183 1162 l 257
 352 1045 526 903 658 712 c 257
EndSplineSet
EndChar

StartChar: uniE064
Encoding: 57444 57444 399
Width: 1372
VWidth: 0
GlyphClass: 2
Flags: HW
LayerCount: 2
Fore
SplineSet
449 340 m 257
 349 340 l 257
 349 657 293 886 170 1171 c 257
 262 1209 l 257
 391 910 449 669 449 340 c 257
1372 0 m 257
 1371 0 l 257
 1162 0 1028 76 972 236 c 257
 852 55 567 0 100 0 c 257
 100 100 l 257
 749 100 938 195 938 491 c 258
 938 1186 l 257
 1038 1186 l 257
 1038 492 l 258
 1038 349 1061 250 1108 191 c 256
 1154 133 1232 100 1371 100 c 257
 1372 100 l 257
 1372 0 l 257
EndSplineSet
EndChar

StartChar: uniE065
Encoding: 57445 57445 400
Width: 1873
VWidth: 0
GlyphClass: 2
Flags: HW
LayerCount: 2
Fore
SplineSet
1652 557 m 257
 1630 478 1601 367 1601 285 c 256
 1601 179 1636 100 1872 100 c 257
 1873 100 l 257
 1873 0 l 257
 1872 0 l 257
 1635 0 1523 93 1504 235 c 257
 1329 55 1101 2 747 2 c 256
 391 2 127 92 127 388 c 256
 127 470 152 580 190 673 c 257
 282 635 l 257
 249 554 227 451 227 388 c 256
 227 188 387 102 747 102 c 256
 1348 102 1497 253 1555 581 c 257
 1652 557 l 257
EndSplineSet
EndChar

StartChar: uniE066
Encoding: 57446 57446 401
Width: 921
VWidth: 0
GlyphClass: 2
Flags: HW
LayerCount: 2
Fore
SplineSet
691 378 m 257
 626 359 558 347 481 347 c 256
 308 347 155 423 155 626 c 256
 155 816 281 1023 463 1023 c 256
 753 1023 793 599 793 421 c 256
 793 19 542 0 0 0 c 257
 -28 0 -50 22 -50 50 c 256
 -50 78 -28 100 0 100 c 257
 545 100 691 125 691 378 c 257
691 482 m 257
 680 689 612 923 463 923 c 256
 365 923 255 786 255 626 c 256
 255 493 332 447 481 447 c 256
 559 447 624 460 691 482 c 257
EndSplineSet
EndChar

StartChar: uniE067
Encoding: 57447 57447 402
Width: 1876
VWidth: 0
GlyphClass: 2
Flags: HW
LayerCount: 2
Fore
SplineSet
1417 68 m 257
 1272 17 1093 0 891 0 c 256
 496 0 129 42 129 375 c 256
 129 484 162 586 190 670 c 257
 284 638 l 257
 257 555 229 464 229 375 c 256
 229 154 470 100 891 100 c 256
 1039 100 1174 110 1286 135 c 257
 1180 208 1112 318 1112 464 c 256
 1112 669 1243 790 1422 790 c 256
 1598 790 1732 669 1732 464 c 256
 1732 316 1664 205 1552 133 c 257
 1649 111 1759 100 1875 100 c 257
 1876 100 l 257
 1876 0 l 257
 1875 0 l 257
 1708 0 1547 19 1417 68 c 257
1419 176 m 257
 1553 231 1632 319 1632 464 c 256
 1632 619 1546 690 1422 690 c 256
 1295 690 1212 619 1212 464 c 256
 1212 321 1293 232 1419 176 c 257
EndSplineSet
EndChar

StartChar: uniE068
Encoding: 57448 57448 403
Width: 908
VWidth: 0
GlyphClass: 2
Flags: HW
LayerCount: 2
Fore
SplineSet
0 100 m 256
 116 100 227 110 323 132 c 257
 214 205 144 316 144 464 c 256
 144 669 275 790 454 790 c 256
 630 790 764 669 764 464 c 256
 764 316 693 205 585 132 c 257
 681 110 791 100 907 100 c 257
 908 100 l 257
 908 0 l 257
 907 0 l 257
 742 0 583 20 454 67 c 257
 325 20 165 0 0 0 c 256
 -28 0 -50 22 -50 50 c 256
 -50 78 -28 100 0 100 c 256
454 174 m 257
 582 230 664 320 664 464 c 256
 664 619 578 690 454 690 c 256
 327 690 244 619 244 464 c 256
 244 320 325 230 454 174 c 257
EndSplineSet
EndChar

StartChar: uniE069
Encoding: 57449 57449 404
Width: 1415
VWidth: 0
GlyphClass: 2
Flags: HW
LayerCount: 2
Fore
SplineSet
1186 0 m 257
 975 0 l 258
 802 0 649 76 649 279 c 256
 649 469 775 676 957 676 c 256
 1232 676 1283 296 1287 100 c 257
 1415 100 l 257
 1415 0 l 257
 1284 0 l 257
 1252 -336 1000 -503 684 -503 c 256
 375 -503 128 -343 128 0 c 256
 128 93 158 234 206 365 c 257
 298 333 l 257
 253 209 228 80 228 0 c 256
 228 -265 401 -403 684 -403 c 256
 971 -403 1161 -263 1186 0 c 257
1185 100 m 257
 1183 321 1111 576 957 576 c 256
 859 576 749 439 749 279 c 256
 749 146 826 100 975 100 c 258
 1185 100 l 257
EndSplineSet
EndChar

StartChar: uniFD3E
Encoding: 64830 64830 433
Width: 598
VWidth: 0
GlyphClass: 2
Flags: HW
LayerCount: 2
Fore
SplineSet
440 2 m 257
 356 -52 l 257
 222 158 150 394 150 681 c 256
 150 968 222 1203 356 1413 c 257
 440 1359 l 257
 316 1165 250 952 250 681 c 256
 250 410 316 196 440 2 c 257
EndSplineSet
EndChar

StartChar: uniFD3F
Encoding: 64831 64831 434
Width: 598
VWidth: 0
GlyphClass: 2
Flags: HW
LayerCount: 2
Fore
SplineSet
158 1359 m 257
 242 1413 l 257
 376 1203 448 967 448 680 c 256
 448 393 376 158 242 -52 c 257
 158 2 l 257
 282 196 348 409 348 680 c 256
 348 951 282 1165 158 1359 c 257
EndSplineSet
EndChar

StartChar: v
Encoding: 118 118 532
Width: 989
VWidth: 0
GlyphClass: 2
Flags: HW
LayerCount: 2
Fore
SplineSet
854 993 m 257
 959 993 l 257
 555 0 l 257
 436 0 l 257
 30 993 l 257
 135 993 l 257
 495 117 l 257
 854 993 l 257
EndSplineSet
EndChar

StartChar: w
Encoding: 119 119 533
Width: 1481
VWidth: 0
GlyphClass: 2
Flags: HW
LayerCount: 2
Fore
SplineSet
1307 993 m 257
 1411 993 l 257
 1113 0 l 257
 988 0 l 257
 741 831 l 257
 494 0 l 257
 369 0 l 257
 70 993 l 257
 174 993 l 257
 431 140 l 257
 685 993 l 257
 796 993 l 257
 1051 140 l 257
 1307 993 l 257
EndSplineSet
EndChar

StartChar: x
Encoding: 120 120 534
Width: 1097
VWidth: 0
GlyphClass: 2
Flags: HW
LayerCount: 2
Fore
SplineSet
926 993 m 257
 1047 993 l 257
 609 482 l 257
 1023 0 l 257
 901 0 l 257
 549 407 l 257
 196 0 l 257
 74 0 l 257
 488 482 l 257
 50 993 l 257
 171 993 l 257
 549 556 l 257
 926 993 l 257
EndSplineSet
EndChar

StartChar: y
Encoding: 121 121 535
Width: 988
VWidth: 0
GlyphClass: 2
Flags: HW
LayerCount: 2
Fore
SplineSet
854 993 m 257
 958 993 l 257
 569 27 l 258
 483 -193 393 -410 111 -410 c 258
 57 -410 l 257
 57 -326 l 257
 111 -326 l 258
 293 -326 370 -203 452 0 c 257
 438 0 l 257
 30 993 l 257
 135 993 l 257
 498 113 l 257
 854 993 l 257
EndSplineSet
EndChar

StartChar: z
Encoding: 122 122 539
Width: 961
VWidth: 0
GlyphClass: 2
Flags: HW
LayerCount: 2
Fore
SplineSet
70 909 m 257
 70 993 l 257
 891 993 l 257
 891 890 l 257
 177 86 l 257
 891 86 l 257
 891 0 l 257
 70 0 l 257
 70 105 l 257
 783 909 l 257
 70 909 l 257
EndSplineSet
EndChar

StartChar: zero
Encoding: 48 48 540
Width: 1169
VWidth: 0
GlyphClass: 2
Flags: HW
LayerCount: 2
Fore
SplineSet
585 -43 m 256
 197 -43 125 400 125 681 c 256
 125 962 197 1403 585 1403 c 256
 973 1403 1044 962 1044 681 c 256
 1044 400 973 -43 585 -43 c 256
585 43 m 256
 861 43 944 386 944 681 c 256
 944 976 861 1319 585 1319 c 256
 309 1319 225 976 225 681 c 256
 225 386 309 43 585 43 c 256
EndSplineSet
EndChar
